<svg width="24" height="24" viewBox="0 0 24 24" fill="none" xmlns="http://www.w3.org/2000/svg">
<path d="M21.4998 5.20499L12.9998 4.79999V5.58499H10.9998V4.79999L2.49981 5.20499C2.24335 5.21783 2.00166 5.32882 1.82481 5.51499C1.64795 5.70115 1.54949 5.94821 1.54981 6.20499V19.705C1.54952 19.842 1.57737 19.9775 1.63164 20.1033C1.68591 20.2291 1.76544 20.3423 1.86529 20.4361C1.96515 20.5299 2.0832 20.6021 2.21213 20.6484C2.34106 20.6946 2.47812 20.7139 2.61481 20.705L9.33481 20.3C9.43164 20.2941 9.52811 20.3164 9.61245 20.3644C9.69679 20.4123 9.76536 20.4838 9.80981 20.57C9.93981 20.9 10.3098 21.025 10.7548 21.025H13.2548C13.6948 21.025 14.0698 20.9 14.1998 20.57C14.2443 20.4838 14.3128 20.4123 14.3972 20.3644C14.4815 20.3164 14.578 20.2941 14.6748 20.3L21.3948 20.705C21.5315 20.7139 21.6686 20.6946 21.7975 20.6484C21.9264 20.6021 22.0445 20.5299 22.1443 20.4361C22.2442 20.3423 22.3237 20.2291 22.378 20.1033C22.4322 19.9775 22.4601 19.842 22.4598 19.705V6.20499C22.46 5.94656 22.3602 5.69808 22.1812 5.51166C22.0022 5.32523 21.758 5.21532 21.4998 5.20499Z" fill="#00B8F0"/>
<path d="M21.4998 5.20499L12.9998 4.79999V5.58499H10.9998V4.79999L2.49981 5.20499C2.24335 5.21783 2.00166 5.32882 1.82481 5.51499C1.64795 5.70115 1.54948 5.94821 1.54981 6.20499V7.95499C1.54948 7.69821 1.64795 7.45115 1.82481 7.26499C2.00166 7.07882 2.24335 6.96783 2.49981 6.95499L11.9998 6.49999L21.4998 6.95499C21.7563 6.96783 21.998 7.07882 22.1748 7.26499C22.3517 7.45115 22.4501 7.69821 22.4498 7.95499V6.19999C22.4488 5.94408 22.3498 5.69827 22.1731 5.51318C21.9964 5.32808 21.7554 5.21778 21.4998 5.20499Z" fill="#4ACFFF"/>
<path d="M21.4998 5.20499L12.9998 4.79999V5.58499H10.9998V4.79999L2.49981 5.20499C2.24335 5.21783 2.00166 5.32882 1.82481 5.51499C1.64795 5.70115 1.54949 5.94821 1.54981 6.20499V19.705C1.54952 19.842 1.57737 19.9775 1.63164 20.1033C1.68591 20.2291 1.76544 20.3423 1.86529 20.4361C1.96515 20.5299 2.0832 20.6021 2.21213 20.6484C2.34106 20.6946 2.47812 20.7139 2.61481 20.705L9.33481 20.3C9.43164 20.2941 9.52811 20.3164 9.61245 20.3644C9.69679 20.4123 9.76536 20.4838 9.80981 20.57C9.93981 20.9 10.3098 21.025 10.7548 21.025H13.2548C13.6948 21.025 14.0698 20.9 14.1998 20.57C14.2443 20.4838 14.3128 20.4123 14.3972 20.3644C14.4815 20.3164 14.578 20.2941 14.6748 20.3L21.3948 20.705C21.5315 20.7139 21.6686 20.6946 21.7975 20.6484C21.9264 20.6021 22.0445 20.5299 22.1443 20.4361C22.2442 20.3423 22.3237 20.2291 22.378 20.1033C22.4322 19.9775 22.4601 19.842 22.4598 19.705V6.20499C22.46 5.94656 22.3602 5.69808 22.1812 5.51166C22.0022 5.32523 21.758 5.21532 21.4998 5.20499Z" stroke="#45413C" stroke-width="0.5" stroke-linecap="round" stroke-linejoin="round"/>
<path d="M10.5 18H13.5V19C13.5 19.2042 13.4189 19.4001 13.2745 19.5445C13.1301 19.6889 12.9342 19.77 12.73 19.77H11.27C11.0658 19.77 10.8699 19.6889 10.7255 19.5445C10.5811 19.4001 10.5 19.2042 10.5 19V18Z" fill="#627B8C" stroke="#45413C" stroke-width="0.5" stroke-linecap="round" stroke-linejoin="round"/>
<path opacity="0.15" d="M3.5 21.75C3.5 21.9489 4.39553 22.1397 5.98959 22.2803C7.58365 22.421 9.74566 22.5 12 22.5C14.2543 22.5 16.4163 22.421 18.0104 22.2803C19.6045 22.1397 20.5 21.9489 20.5 21.75C20.5 21.5511 19.6045 21.3603 18.0104 21.2197C16.4163 21.079 14.2543 21 12 21C9.74566 21 7.58365 21.079 5.98959 21.2197C4.39553 21.3603 3.5 21.5511 3.5 21.75Z" fill="#45413C"/>
<path d="M4.29492 4.75L3.21492 6.12C3.1041 6.2876 3.04499 6.48408 3.04492 6.685V19.5L4.29492 17.665V4.75ZM19.7049 4.75L20.7849 6.12C20.8957 6.2876 20.9549 6.48408 20.9549 6.685V19.5L19.7049 17.665V4.75Z" fill="#FFFEF2"/>
<path d="M3.21492 6.12C3.1041 6.2876 3.04499 6.48408 3.04492 6.685V8.435C3.04499 8.23408 3.1041 8.0376 3.21492 7.87L4.29492 6.5V4.75L3.21492 6.12ZM20.7849 6.12L19.7049 4.75V6.5L20.7849 7.87C20.8957 8.0376 20.9549 8.23408 20.9549 8.435V6.685C20.9549 6.48408 20.8957 6.2876 20.7849 6.12Z" fill="white"/>
<path d="M4.29492 4.75L3.21492 6.12C3.1041 6.2876 3.04499 6.48408 3.04492 6.685V19.5L4.29492 17.665V4.75ZM19.7049 4.75L20.7849 6.12C20.8957 6.2876 20.9549 6.48408 20.9549 6.685V19.5L19.7049 17.665V4.75Z" stroke="#45413C" stroke-width="0.5" stroke-linecap="round" stroke-linejoin="round"/>
<path d="M11.9999 18.5V5.5C11.9999 5.10218 11.8419 4.72064 11.5606 4.43934C11.2793 4.15804 10.8977 4 10.4999 4L4.74992 4.46C4.56789 4.49776 4.40601 4.60094 4.29492 4.75V19.25L10.6099 19.05C10.7848 18.8591 11.0009 18.7103 11.2416 18.6151C11.4824 18.5198 11.7417 18.4804 11.9999 18.5ZM13.4999 4C13.1021 4 12.7206 4.15804 12.4393 4.43934C12.158 4.72064 11.9999 5.10218 11.9999 5.5V18.5C12.2581 18.4804 12.5174 18.5198 12.7582 18.6151C12.999 18.7103 13.215 18.8591 13.3899 19.05L19.7049 19.25V4.75C19.5938 4.60094 19.432 4.49776 19.2499 4.46L13.4999 4Z" fill="#FFFEF2"/>
<path d="M10.4999 4L4.74993 4.46C4.56789 4.49776 4.40602 4.60094 4.29493 4.75V6.21C4.29442 6.08483 4.34088 5.96403 4.42512 5.87145C4.50936 5.77888 4.62527 5.72126 4.74993 5.71L10.4999 5.25C10.8978 5.25 11.2793 5.40804 11.5606 5.68934C11.8419 5.97064 11.9999 6.35218 11.9999 6.75V5.5C11.9999 5.10218 11.8419 4.72064 11.5606 4.43934C11.2793 4.15804 10.8978 4 10.4999 4ZM19.2499 4.46L13.4999 4C13.1021 4 12.7206 4.15804 12.4393 4.43934C12.158 4.72064 11.9999 5.10218 11.9999 5.5V6.75C11.9999 6.35218 12.158 5.97064 12.4393 5.68934C12.7206 5.40804 13.1021 5.25 13.4999 5.25L19.2499 5.71C19.3746 5.72126 19.4905 5.77888 19.5747 5.87145C19.659 5.96403 19.7054 6.08483 19.7049 6.21V4.75C19.5938 4.60094 19.432 4.49776 19.2499 4.46Z" fill="white"/>
<path d="M11.9999 18.5V5.5M11.9999 18.5C11.7417 18.4804 11.4824 18.5198 11.2416 18.6151C11.0009 18.7103 10.7848 18.8591 10.6099 19.05L4.29492 19.25V4.75C4.40601 4.60094 4.56789 4.49776 4.74992 4.46L10.4999 4C10.8977 4 11.2793 4.15804 11.5606 4.43934C11.8419 4.72064 11.9999 5.10218 11.9999 5.5M11.9999 18.5C12.2581 18.4804 12.5174 18.5198 12.7582 18.6151C12.999 18.7103 13.215 18.8591 13.3899 19.05L19.7049 19.25V4.75C19.5938 4.60094 19.432 4.49776 19.2499 4.46L13.4999 4C13.1021 4 12.7206 4.15804 12.4393 4.43934C12.158 4.72064 11.9999 5.10218 11.9999 5.5" stroke="#45413C" stroke-width="0.5" stroke-linecap="round" stroke-linejoin="round"/>
<path d="M11.9999 18.5C11.9403 18.1469 11.7563 17.8268 11.4812 17.5975C11.206 17.3683 10.858 17.245 10.4999 17.25L4.29492 17.665L3.04492 19.5L10.5899 19.085C10.7615 18.8825 10.979 18.7237 11.2242 18.622C11.4694 18.5202 11.7353 18.4784 11.9999 18.5ZM13.4099 19.085L20.9549 19.5L19.7049 17.665L13.4999 17.25C13.1461 17.251 12.8041 17.3769 12.5342 17.6057C12.2643 17.8344 12.0839 18.1512 12.0249 18.5C12.2854 18.4825 12.5464 18.5263 12.787 18.6278C13.0275 18.7294 13.2409 18.886 13.4099 19.085Z" fill="#FFFCE5" stroke="#45413C" stroke-width="0.5" stroke-linecap="round" stroke-linejoin="round"/>
<path d="M10.25 5.75L5.75 6.18M10.25 7.665L5.75 8.095M10.25 9.58L5.75 10.005M10.25 11.495L5.75 11.92M10.25 13.405L5.75 13.835M10.25 15.32L5.75 15.75M13.75 5.75L18.25 6.18M13.75 7.665L18.25 8.095M13.75 9.58L18.25 10.005M13.75 11.495L18.25 11.92M13.75 13.405L18.25 13.835M13.75 15.32L18.25 15.75" stroke="#45413C" stroke-width="0.5" stroke-linecap="round" stroke-linejoin="round"/>
</svg>
