<svg width="24" height="24" viewBox="0 0 24 24" fill="none" xmlns="http://www.w3.org/2000/svg">
<path d="M12.9933 5.94388C15.1308 5.58763 18.9183 6.18763 21.3933 4.51888C21.7121 4.29388 21.8808 4.50013 21.9558 4.59388C22.5558 5.36263 23.2121 9.93763 22.8746 11.1001C22.7808 11.4189 22.6496 11.5126 22.4808 11.6251C22.0871 11.9251 20.7933 12.9001 19.4996 14.6251C19.8371 15.2064 19.7246 15.6751 19.3496 16.0689C18.9746 16.4814 18.5433 16.6314 17.9808 16.4439C17.9808 16.8939 17.9433 17.1376 17.6621 17.4189C17.2308 17.8314 16.6121 17.9439 16.1433 17.8501C16.1808 18.3189 15.8996 18.5626 15.6933 18.7126C15.2246 19.0689 14.7746 19.1626 14.1371 18.9001C14.0058 19.1626 13.1433 20.0251 12.0933 19.3501C11.8871 19.2189 11.3996 18.8626 11.3996 18.8626C11.3996 18.8626 10.4058 19.8001 9.37457 19.3876C9.16833 19.3126 8.88707 19.0501 8.81208 18.8064C8.56833 18.9751 7.87457 19.0314 7.51832 18.7689C7.18082 18.5064 6.73083 18.0939 6.84333 17.4001C6.46833 17.5501 6.13083 17.5689 5.62458 17.1001C5.24958 16.7439 4.93083 16.2751 5.17458 15.8626C4.78083 15.9376 4.48082 15.8064 4.29332 15.5814C4.10582 15.3564 3.65583 14.6814 4.16208 14.0439C2.75583 13.1064 1.93082 12.2626 1.57457 12.0939C1.36832 11.9814 1.21832 11.8126 1.16207 11.5689C0.993325 10.6876 1.16207 5.85013 2.11832 4.81888C2.28707 4.63138 2.51207 4.68763 2.62457 4.76263C8.19333 8.15638 9.65583 4.76263 12.9933 5.94388Z" fill="#70534A"/>
<path d="M9.56235 17.4376C10.0498 16.8751 10.1999 16.1814 9.7311 15.7126C9.07485 15.0751 8.54985 15.3189 8.06235 15.5626C8.54985 15.0189 8.47485 14.3626 8.0436 13.9876C7.4061 13.4439 6.74985 13.8751 6.18735 14.4376C6.29985 14.0626 6.5061 13.9314 6.0186 13.3689C5.5686 12.8626 4.4436 13.3126 4.16235 14.0439C3.6561 14.6814 4.1061 15.3564 4.2936 15.5814C4.4811 15.8064 4.7811 15.9376 5.17485 15.8626C4.9311 16.2751 5.24985 16.7439 5.62485 17.1001C6.1311 17.5689 6.4686 17.5501 6.8436 17.4001C6.7311 18.0939 7.1811 18.5064 7.5186 18.7689C7.87485 19.0314 8.5686 18.9751 8.81235 18.8064C8.88735 19.0501 9.1686 19.3126 9.37485 19.3876C9.8061 19.5564 10.2374 19.5001 10.5749 19.3689C11.1186 18.6751 11.3623 17.6439 10.7811 17.1939C10.3499 16.8751 9.93735 17.0626 9.56235 17.4376ZM21.9561 4.59388C21.8811 4.50013 21.7124 4.29388 21.3936 4.51888C18.9186 6.18763 15.1311 5.58763 12.9936 5.94388C12.5436 5.94388 12.2999 5.96263 11.7561 6.16888C10.9311 6.48763 9.56235 7.63138 8.09985 8.19388C7.42485 8.45638 7.2561 9.46888 8.0811 9.90013C9.82485 10.8376 11.7373 9.03763 13.5186 8.92513C15.0749 8.81263 16.3499 10.6876 17.2499 11.8126C17.7936 12.5064 18.6936 13.6876 19.4999 14.6251C20.6999 12.9939 22.1061 11.9064 22.4811 11.6251C22.6499 11.5126 22.7811 11.4189 22.8749 11.1001C23.2124 9.93763 22.5561 5.36263 21.9561 4.59388Z" fill="#BA8D68"/>
<mask id="mask0_278_3571" style="mask-type:luminance" maskUnits="userSpaceOnUse" x="1" y="4" width="22" height="16">
<path d="M12.9933 5.94388C15.1308 5.58763 18.9183 6.18763 21.3933 4.51888C21.7121 4.29388 21.8808 4.50013 21.9558 4.59388C22.5558 5.36263 23.2121 9.93763 22.8746 11.1001C22.7808 11.4189 22.6496 11.5126 22.4808 11.6251C22.0871 11.9251 20.7933 12.9001 19.4996 14.6251C19.8371 15.2064 19.7246 15.6751 19.3496 16.0689C18.9746 16.4814 18.5433 16.6314 17.9808 16.4439C17.9808 16.8939 17.9433 17.1376 17.6621 17.4189C17.2308 17.8314 16.6121 17.9439 16.1433 17.8501C16.1808 18.3189 15.8996 18.5626 15.6933 18.7126C15.2246 19.0689 14.7746 19.1626 14.1371 18.9001C14.0058 19.1626 13.1433 20.0251 12.0933 19.3501C11.8871 19.2189 11.3996 18.8626 11.3996 18.8626C11.3996 18.8626 10.4058 19.8001 9.37457 19.3876C9.16833 19.3126 8.88707 19.0501 8.81208 18.8064C8.56833 18.9751 7.87457 19.0314 7.51832 18.7689C7.18082 18.5064 6.73083 18.0939 6.84333 17.4001C6.46833 17.5501 6.13083 17.5689 5.62458 17.1001C5.24958 16.7439 4.93083 16.2751 5.17458 15.8626C4.78083 15.9376 4.48082 15.8064 4.29332 15.5814C4.10582 15.3564 3.65583 14.6814 4.16208 14.0439C2.75583 13.1064 1.93082 12.2626 1.57457 12.0939C1.36832 11.9814 1.21832 11.8126 1.16207 11.5689C0.993325 10.6876 1.16207 5.85013 2.11832 4.81888C2.28707 4.63138 2.51207 4.68763 2.62457 4.76263C8.19333 8.15638 9.65583 4.76263 12.9933 5.94388Z" fill="white"/>
</mask>
<g mask="url(#mask0_278_3571)">
<path d="M4.21797 13.5187C4.21797 13.5187 1.59297 11.8875 1.40547 11.775C1.21797 11.6625 1.10547 11.475 0.974219 11.2125C0.842969 10.95 0.824219 11.475 0.824219 11.475L3.11172 14.7562C3.52422 14.4 3.93672 14.0438 4.34922 13.65C4.31172 13.5563 4.21797 13.5187 4.21797 13.5187ZM19.7055 14.5312C18.8242 14.175 18.5992 12.9937 17.7367 12.6562C18.093 13.1625 18.618 13.9312 18.7305 14.0812C19.0305 14.4937 18.8805 14.7562 18.7867 14.925C18.6742 15.0938 18.4305 15.3937 18.2055 15.5812C17.868 15.8625 17.418 15.75 17.2117 15.6188C17.0055 15.4875 16.593 15.5437 16.8367 15.8438C17.268 16.4062 17.0805 16.65 17.0242 16.7625C16.9305 16.9125 16.743 17.1188 16.6117 17.2313C16.3492 17.4563 15.7867 17.4 15.5805 17.2687C15.3742 17.1375 14.9055 17.1 15.1117 17.3438C15.4305 17.7188 15.1867 18.0188 15.1305 18.0938C15.0742 18.1687 14.943 18.3 14.7555 18.5062C14.6055 18.675 14.2117 18.6938 13.9867 18.5625C13.8555 18.4875 13.1992 17.9437 13.0492 17.85C12.8992 17.7562 12.5992 17.8312 12.8805 18.225C13.1617 18.6375 13.1242 18.7312 13.0305 18.8812C12.993 18.9375 12.918 19.0312 12.7867 19.1625C12.5242 19.425 12.168 19.125 12.168 19.125L11.0992 18.375C11.0992 18.375 11.043 18.4125 10.893 18.5062C10.9492 19.0125 11.1367 19.5187 11.2117 20.0062L11.643 20.0625L15.843 19.2562L20.3055 15.8438L19.7055 14.5312ZM15.1492 9.7875C14.793 9.58125 14.3617 9.3 13.7055 9.6C13.0492 9.9 11.5305 10.6125 11.0992 10.8C10.6492 10.9875 9.52422 11.2875 8.86797 10.3312C9.73047 10.0875 12.5805 9.01875 12.5805 9.01875L13.8555 8.85L14.8492 9.20625C14.8492 9.20625 15.1867 9.46875 15.2992 9.58125C15.4305 9.69375 15.1492 9.7875 15.1492 9.7875ZM14.6242 3.84375C8.88672 3.88125 1.70547 3.91875 1.70547 3.91875L1.81797 4.85625C7.78047 8.475 9.37422 5.775 11.4742 6.15C12.0742 6.05625 13.1242 5.85 13.4805 5.8125C14.6992 5.175 14.5492 5.5875 14.6242 3.84375Z" fill="#58382B"/>
</g>
<mask id="mask1_278_3571" style="mask-type:luminance" maskUnits="userSpaceOnUse" x="1" y="4" width="22" height="16">
<path d="M12.9933 5.94388C15.1308 5.58763 18.9183 6.18763 21.3933 4.51888C21.7121 4.29388 21.8808 4.50013 21.9558 4.59388C22.5558 5.36263 23.2121 9.93763 22.8746 11.1001C22.7808 11.4189 22.6496 11.5126 22.4808 11.6251C22.0871 11.9251 20.7933 12.9001 19.4996 14.6251C19.8371 15.2064 19.7246 15.6751 19.3496 16.0689C18.9746 16.4814 18.5433 16.6314 17.9808 16.4439C17.9808 16.8939 17.9433 17.1376 17.6621 17.4189C17.2308 17.8314 16.6121 17.9439 16.1433 17.8501C16.1808 18.3189 15.8996 18.5626 15.6933 18.7126C15.2246 19.0689 14.7746 19.1626 14.1371 18.9001C14.0058 19.1626 13.1433 20.0251 12.0933 19.3501C11.8871 19.2189 11.3996 18.8626 11.3996 18.8626C11.3996 18.8626 10.4058 19.8001 9.37457 19.3876C9.16833 19.3126 8.88707 19.0501 8.81208 18.8064C8.56833 18.9751 7.87457 19.0314 7.51832 18.7689C7.18082 18.5064 6.73083 18.0939 6.84333 17.4001C6.46833 17.5501 6.13083 17.5689 5.62458 17.1001C5.24958 16.7439 4.93083 16.2751 5.17458 15.8626C4.78083 15.9376 4.48082 15.8064 4.29332 15.5814C4.10582 15.3564 3.65583 14.6814 4.16208 14.0439C2.75583 13.1064 1.93082 12.2626 1.57457 12.0939C1.36832 11.9814 1.21832 11.8126 1.16207 11.5689C0.993325 10.6876 1.16207 5.85013 2.11832 4.81888C2.28707 4.63138 2.51207 4.68763 2.62457 4.76263C8.19333 8.15638 9.65583 4.76263 12.9933 5.94388Z" fill="white"/>
</mask>
<g mask="url(#mask1_278_3571)">
<path d="M4.21833 13.4437C4.08708 13.3687 2.71833 12.5999 2.23083 12.4124C2.02458 12.3374 1.98708 12.4499 2.02458 12.5249L2.86833 13.4812C2.86833 13.4812 3.84333 14.3624 4.16208 14.0437C4.31208 13.8937 4.44333 13.5937 4.21833 13.4437ZM17.9808 16.4437C17.0433 16.0874 16.1621 15.2812 14.8121 13.9687C14.6058 13.7624 14.9246 13.3687 15.2058 13.6312C16.8746 15.1874 17.2496 15.5249 18.2808 16.1999C18.7496 16.5187 18.9933 16.2562 18.9933 16.4624C18.9933 16.5937 18.8621 16.7062 18.6183 16.7249C18.3746 16.7437 17.9808 16.4437 17.9808 16.4437ZM16.1433 17.8499C15.8621 17.7937 15.3746 17.8687 13.2371 15.7124C13.0121 15.4687 13.3496 15.1124 13.6308 15.3937C14.7371 16.4999 15.2246 16.9124 16.0683 17.5312C16.5558 17.9062 16.7621 17.6999 16.7621 17.9062C16.7621 18.0562 16.1433 17.8499 16.1433 17.8499ZM14.1371 18.8999C13.8371 18.8062 12.1683 17.5124 11.9996 17.3624C11.7183 17.1187 11.9996 16.8187 12.2996 17.0624C13.3308 17.9624 14.0996 18.5812 14.3621 18.7499C14.7558 19.0124 14.8683 18.9187 14.8683 19.0874C14.8683 19.2562 14.4371 18.9937 14.1371 18.8999Z" fill="black"/>
</g>
<mask id="mask2_278_3571" style="mask-type:luminance" maskUnits="userSpaceOnUse" x="1" y="4" width="22" height="16">
<path d="M12.9933 5.94388C15.1308 5.58763 18.9183 6.18763 21.3933 4.51888C21.7121 4.29388 21.8808 4.50013 21.9558 4.59388C22.5558 5.36263 23.2121 9.93763 22.8746 11.1001C22.7808 11.4189 22.6496 11.5126 22.4808 11.6251C22.0871 11.9251 20.7933 12.9001 19.4996 14.6251C19.8371 15.2064 19.7246 15.6751 19.3496 16.0689C18.9746 16.4814 18.5433 16.6314 17.9808 16.4439C17.9808 16.8939 17.9433 17.1376 17.6621 17.4189C17.2308 17.8314 16.6121 17.9439 16.1433 17.8501C16.1808 18.3189 15.8996 18.5626 15.6933 18.7126C15.2246 19.0689 14.7746 19.1626 14.1371 18.9001C14.0058 19.1626 13.1433 20.0251 12.0933 19.3501C11.8871 19.2189 11.3996 18.8626 11.3996 18.8626C11.3996 18.8626 10.4058 19.8001 9.37457 19.3876C9.16833 19.3126 8.88707 19.0501 8.81208 18.8064C8.56833 18.9751 7.87457 19.0314 7.51832 18.7689C7.18082 18.5064 6.73083 18.0939 6.84333 17.4001C6.46833 17.5501 6.13083 17.5689 5.62458 17.1001C5.24958 16.7439 4.93083 16.2751 5.17458 15.8626C4.78083 15.9376 4.48082 15.8064 4.29332 15.5814C4.10582 15.3564 3.65583 14.6814 4.16208 14.0439C2.75583 13.1064 1.93082 12.2626 1.57457 12.0939C1.36832 11.9814 1.21832 11.8126 1.16207 11.5689C0.993325 10.6876 1.16207 5.85013 2.11832 4.81888C2.28707 4.63138 2.51207 4.68763 2.62457 4.76263C8.19333 8.15638 9.65583 4.76263 12.9933 5.94388Z" fill="white"/>
</mask>
<g mask="url(#mask2_278_3571)">
<path d="M21.5811 3.8252C21.5811 3.8252 18.4311 3.8252 14.6248 3.84395C14.5498 5.5877 12.5248 5.64395 11.2873 6.28145C10.7436 6.6752 9.3373 7.5752 9.3373 7.5752C9.3373 7.5752 9.8998 7.8752 10.4623 7.51895C12.2436 6.35645 12.9373 6.24395 13.7248 6.2627C18.6373 6.3002 20.1936 6.01895 22.0498 4.4627C22.3498 4.21895 21.5623 3.84395 21.5811 3.8252ZM10.8936 18.4877C10.7998 18.5439 10.6873 18.6377 10.5561 18.7689C10.1248 19.1627 9.8248 19.0314 9.50605 18.7689C9.1873 18.5064 9.28106 18.1877 9.35606 17.9627C9.43106 17.7377 9.28105 17.8689 8.8123 18.2064C8.26855 18.6189 8.00605 18.3752 7.7998 18.2439C7.6873 18.1877 7.48105 17.9627 7.29355 17.7189C6.99355 17.3252 7.2373 16.9127 7.3123 16.7814C7.3873 16.6502 7.33105 16.5189 7.10605 16.6502C6.73105 16.8752 6.3748 16.6502 6.2248 16.5564C6.09355 16.4627 5.86855 16.2377 5.71855 16.0502C5.41855 15.6752 5.6248 15.3564 5.6998 15.1689C5.7748 14.9814 5.60605 14.8689 5.26855 15.0939C4.81855 15.3752 3.91855 14.8127 4.3498 13.8564C4.3873 13.7627 4.2748 13.6877 4.1623 14.0439C3.7498 14.4377 3.5248 14.4002 3.1123 14.7564L3.2623 14.9627L5.3248 17.5127L8.5873 19.6502L11.2123 20.0064C11.1373 19.5002 10.9498 18.9939 10.8936 18.4877ZM19.7061 14.5314L19.5748 14.2502C19.5748 14.2502 19.2936 12.7689 19.3123 11.7939C19.7623 11.1377 19.6686 10.7439 19.3311 10.5752C18.9936 10.4252 18.3373 10.5939 17.7186 10.4814L16.8561 10.8752L17.4186 12.1877C17.4186 12.1877 17.5498 12.3752 17.7373 12.6377C18.5998 12.9752 18.8248 14.1752 19.7061 14.5314Z" fill="#9A6648"/>
</g>
<mask id="mask3_278_3571" style="mask-type:luminance" maskUnits="userSpaceOnUse" x="1" y="4" width="22" height="16">
<path d="M12.9933 5.94388C15.1308 5.58763 18.9183 6.18763 21.3933 4.51888C21.7121 4.29388 21.8808 4.50013 21.9558 4.59388C22.5558 5.36263 23.2121 9.93763 22.8746 11.1001C22.7808 11.4189 22.6496 11.5126 22.4808 11.6251C22.0871 11.9251 20.7933 12.9001 19.4996 14.6251C19.8371 15.2064 19.7246 15.6751 19.3496 16.0689C18.9746 16.4814 18.5433 16.6314 17.9808 16.4439C17.9808 16.8939 17.9433 17.1376 17.6621 17.4189C17.2308 17.8314 16.6121 17.9439 16.1433 17.8501C16.1808 18.3189 15.8996 18.5626 15.6933 18.7126C15.2246 19.0689 14.7746 19.1626 14.1371 18.9001C14.0058 19.1626 13.1433 20.0251 12.0933 19.3501C11.8871 19.2189 11.3996 18.8626 11.3996 18.8626C11.3996 18.8626 10.4058 19.8001 9.37457 19.3876C9.16833 19.3126 8.88707 19.0501 8.81208 18.8064C8.56833 18.9751 7.87457 19.0314 7.51832 18.7689C7.18082 18.5064 6.73083 18.0939 6.84333 17.4001C6.46833 17.5501 6.13083 17.5689 5.62458 17.1001C5.24958 16.7439 4.93083 16.2751 5.17458 15.8626C4.78083 15.9376 4.48082 15.8064 4.29332 15.5814C4.10582 15.3564 3.65583 14.6814 4.16208 14.0439C2.75583 13.1064 1.93082 12.2626 1.57457 12.0939C1.36832 11.9814 1.21832 11.8126 1.16207 11.5689C0.993325 10.6876 1.16207 5.85013 2.11832 4.81888C2.28707 4.63138 2.51207 4.68763 2.62457 4.76263C8.19333 8.15638 9.65583 4.76263 12.9933 5.94388Z" fill="white"/>
</mask>
<g mask="url(#mask3_278_3571)">
<path d="M22.6117 11.7375C22.2742 11.7937 21.5242 11.7 19.4242 13.8375C19.3304 13.9312 19.1992 13.9312 19.1054 13.8375C18.6742 13.3312 18.1492 12.5437 17.5304 11.3625C17.4367 11.1937 17.5117 10.9125 17.8117 10.9312C18.1117 10.95 18.8804 10.8187 19.0492 10.7062C19.2367 10.5937 19.0867 10.5 18.9742 10.5C17.9992 10.4812 16.8742 10.5 15.1492 9.11247C14.8679 8.88747 13.7617 8.15622 12.1117 8.92497C11.3617 9.26247 10.3867 9.63747 10.0867 9.73122C9.58043 9.89997 8.39918 10.1812 7.89293 9.37497C7.72418 9.11247 7.64918 8.66247 8.08043 8.43747C8.53043 8.21247 9.09293 7.96872 9.80543 7.55622C10.9492 6.89997 11.8492 6.09372 12.9929 5.94372C13.1054 5.75622 13.1054 5.83122 13.0117 5.84997C10.4617 5.98122 10.4992 6.97497 7.94918 8.04372C7.33043 8.30622 7.12418 8.88747 7.48043 9.52497C7.94918 10.35 8.64293 10.5937 10.3867 10.1625C11.3242 9.93747 13.1429 8.71872 14.3992 9.33747C14.9804 9.61872 15.9742 10.5187 17.2304 12.1312C18.4679 13.7062 19.2929 14.2687 19.4992 14.625C20.0054 14.7375 21.1867 13.65 21.1867 13.65L22.6117 11.7375ZM4.21793 13.4437C4.87418 12.6562 5.73668 12.8625 6.09293 13.1437C6.39293 13.3875 6.48668 13.6312 6.48668 13.8937C6.73043 13.7062 7.38668 13.1437 8.24918 13.8562C8.56793 14.1187 8.73668 14.5875 8.58668 15.1125C8.88668 15.0375 9.43043 15.0937 9.84293 15.4875C10.2554 15.8812 10.3867 16.4625 10.1054 16.9312C10.4617 16.7437 11.3804 17.025 11.3054 17.8687C11.2867 18.1312 11.1929 18.4125 11.0804 18.6187C11.1929 18.7312 11.3992 18.8625 11.3992 18.8625L11.4367 19.4062C11.4367 19.4062 10.1054 19.575 9.97418 19.6125C9.82418 19.65 9.63668 19.4625 9.74918 19.425C9.86168 19.3687 10.1054 19.3125 10.3492 19.0125C10.5742 18.7125 10.7429 18.3937 10.7992 18.2812C11.2492 17.5312 10.3117 17.025 9.86168 17.4C9.65543 17.5687 9.24293 18.3375 8.81168 18.8062C8.21168 19.5 7.72418 18.9562 7.68668 18.9187C7.63043 18.8812 7.51793 18.7687 7.68668 18.75C7.85543 18.7312 8.39918 18.7875 8.68043 18.3375C8.96168 17.8875 9.44918 17.2125 9.56168 17.025C9.67418 16.8375 9.99293 16.2562 9.46793 15.8062C9.31793 15.675 8.71793 15.3 8.13668 15.8625C7.89293 16.0875 7.08668 17.0812 6.84293 17.4C6.59918 17.7187 6.13043 17.6812 5.94293 17.4375C5.88668 17.3625 5.86793 17.2312 6.01793 17.2875C6.16793 17.3437 6.37418 17.3625 6.65543 17.0437C6.93668 16.725 7.87418 15.4687 8.00543 15.2625C8.15543 15.0562 8.30543 14.6062 7.93043 14.1937C7.78043 14.025 7.29293 13.8375 6.91793 14.0812C6.35543 14.4375 5.41793 15.5437 5.17418 15.8625C4.93043 16.1812 4.48043 15.8437 4.42418 15.7687C4.36793 15.6937 4.36793 15.6 4.51793 15.6187C4.68668 15.6375 4.74293 15.675 4.94918 15.45C5.15543 15.225 5.84918 14.4937 5.94293 14.4C6.13043 14.1937 6.16793 13.9125 5.94293 13.6125C5.69918 13.2937 5.09918 13.2375 4.78043 13.5C4.49918 13.725 4.31168 13.8937 4.16168 14.0437C4.03043 13.875 4.03043 13.6687 4.21793 13.4437Z" fill="#62392B"/>
</g>
</svg>
