<svg width="24" height="24" viewBox="0 0 24 24" fill="none" xmlns="http://www.w3.org/2000/svg">
<path d="M17.7004 20.4H7.50039C4.44039 20.4 2.40039 18.9177 2.40039 15.4588V8.54118C2.40039 5.08236 4.44039 3.60001 7.50039 3.60001H17.7004C20.7604 3.60001 22.8004 5.08236 22.8004 8.54118V15.4588C22.8004 18.9177 20.7604 20.4 17.7004 20.4Z" stroke="white" stroke-opacity="0.5" stroke-width="1.49969" stroke-miterlimit="10" stroke-linecap="round" stroke-linejoin="round"/>
<path d="M11.4004 15.6C13.0572 15.6 14.4004 14.2569 14.4004 12.6C14.4004 10.9432 13.0572 9.60001 11.4004 9.60001C9.74354 9.60001 8.40039 10.9432 8.40039 12.6C8.40039 14.2569 9.74354 15.6 11.4004 15.6Z" stroke="white" stroke-opacity="0.5" stroke-width="1.49969" stroke-miterlimit="10" stroke-linecap="round" stroke-linejoin="round"/>
<path d="M6 9.60001V14.4" stroke="white" stroke-opacity="0.5" stroke-width="1.49969" stroke-miterlimit="10" stroke-linecap="round" stroke-linejoin="round"/>
<path d="M18 9.60001V14.4" stroke="white" stroke-opacity="0.5" stroke-width="1.49969" stroke-miterlimit="10" stroke-linecap="round" stroke-linejoin="round"/>
</svg>
