<svg width="28" height="27" viewBox="0 0 28 27" fill="none" xmlns="http://www.w3.org/2000/svg">
<path d="M4.6865 19.8145C4.86814 19.9968 5.00733 20.217 5.09415 20.4593C5.18096 20.7016 5.21326 20.96 5.18875 21.2162C5.06546 22.402 4.83229 23.5737 4.49225 24.7162C6.9335 24.151 8.4245 23.4965 9.10175 23.1535C9.48588 22.9589 9.92826 22.9128 10.3442 23.024C11.5365 23.3431 12.7658 23.5032 14 23.5C20.993 23.5 26.25 18.5877 26.25 13C26.25 7.41225 20.993 2.5 14 2.5C7.007 2.5 1.75 7.414 1.75 13C1.75 15.569 2.82975 17.9525 4.6865 19.8145ZM3.82375 26.6483C3.4091 26.7303 2.99313 26.8056 2.576 26.874C2.226 26.93 1.96 26.566 2.09825 26.2405C2.25322 25.8739 2.39564 25.5021 2.52525 25.1257L2.5305 25.1082C2.9645 23.8482 3.318 22.3993 3.4475 21.05C1.30025 18.8975 0 16.08 0 13C0 6.2345 6.2685 0.75 14 0.75C21.7315 0.75 28 6.2345 28 13C28 19.7655 21.7315 25.25 14 25.25C12.6133 25.2531 11.2323 25.073 9.89275 24.7145C8.98275 25.1748 7.0245 26.013 3.82375 26.6483Z" fill="#C8C8C8"/>
</svg>
