<svg width="273" height="96" viewBox="0 0 273 96" fill="none" xmlns="http://www.w3.org/2000/svg">
<path d="M-4.91685 47.0322C-4.91685 47.0322 20.8984 20.4329 43.2402 15.0132C72.9221 7.81287 94.2463 49.4138 92.3307 70.007C90.415 90.6003 70.3007 92.5159 57.3701 90.6003C44.4394 88.6846 34.6217 72.8093 39.1714 54.9213C43.721 37.0333 74.1725 3.40938 116.639 6.81549C159.105 10.2216 179.606 33.3687 163.051 57.1521C156.988 65.8623 149.092 70.2851 140.844 72.8093C132.597 75.3335 115.531 70.779 116.921 53.4521C118.31 36.1252 153.86 7.09056 184.252 12.2386C211.472 16.8492 237.025 37.5962 235.315 58.9228C233.604 80.2493 213.453 78.6331 209.123 78.2858C204.794 77.9385 193.103 75.323 192.028 59.4763C190.952 43.6295 203.148 -6.03227 268.275 7.40816" stroke="white" stroke-opacity="0.2" stroke-width="8.29785" stroke-linecap="round"/>
</svg>
