<svg width="7" height="12" viewBox="0 0 7 12" fill="none" xmlns="http://www.w3.org/2000/svg">
<path d="M0.645857 1.35396C0.599402 1.3075 0.562552 1.25235 0.537411 1.19166C0.51227 1.13096 0.499329 1.06591 0.499329 1.00021C0.499329 0.934512 0.51227 0.869458 0.537411 0.808761C0.562552 0.748064 0.599402 0.692914 0.645857 0.646459C0.692312 0.600004 0.747463 0.563155 0.808159 0.538013C0.868856 0.512871 0.93391 0.499931 0.999608 0.499931C1.06531 0.499931 1.13036 0.512871 1.19106 0.538013C1.25175 0.563155 1.3069 0.600004 1.35336 0.646459L6.35336 5.64646C6.39985 5.6929 6.43672 5.74804 6.46189 5.80874C6.48705 5.86944 6.5 5.9345 6.5 6.00021C6.5 6.06592 6.48705 6.13098 6.46189 6.19168C6.43672 6.25238 6.39985 6.30752 6.35336 6.35396L1.35336 11.354C1.25954 11.4478 1.13229 11.5005 0.999607 11.5005C0.866925 11.5005 0.739676 11.4478 0.645856 11.354C0.552036 11.2601 0.499328 11.1329 0.499328 11.0002C0.499328 10.8675 0.552036 10.7403 0.645856 10.6465L5.29273 6.00021L0.645857 1.35396Z" fill="#1B1C1E"/>
</svg>
