<svg width="18" height="18" viewBox="0 0 18 18" fill="none" xmlns="http://www.w3.org/2000/svg">
<path d="M13.2748 15.3H5.6248C3.3298 15.3 1.7998 14.1882 1.7998 11.5941V6.40588C1.7998 3.81176 3.3298 2.7 5.6248 2.7H13.2748C15.5698 2.7 17.0998 3.81176 17.0998 6.40588V11.5941C17.0998 14.1882 15.5698 15.3 13.2748 15.3Z" stroke="white" stroke-width="1.12477" stroke-miterlimit="10" stroke-linecap="round" stroke-linejoin="round"/>
<path d="M8.5498 11.7C9.79245 11.7 10.7998 10.6926 10.7998 9.45C10.7998 8.20736 9.79245 7.2 8.5498 7.2C7.30716 7.2 6.2998 8.20736 6.2998 9.45C6.2998 10.6926 7.30716 11.7 8.5498 11.7Z" stroke="white" stroke-width="1.12477" stroke-miterlimit="10" stroke-linecap="round" stroke-linejoin="round"/>
<path d="M4.5 7.2V10.8" stroke="white" stroke-width="1.12477" stroke-miterlimit="10" stroke-linecap="round" stroke-linejoin="round"/>
<path d="M13.5 7.2V10.8" stroke="white" stroke-width="1.12477" stroke-miterlimit="10" stroke-linecap="round" stroke-linejoin="round"/>
</svg>
