<svg width="40" height="40" viewBox="0 0 40 40" fill="none" xmlns="http://www.w3.org/2000/svg">
<rect width="40" height="40" rx="20" fill="#0F6AD9" fill-opacity="0.24"/>
<path d="M15.1104 13.96L24.1304 10.95C28.1804 9.59997 30.3804 11.81 29.0404 15.86L26.0304 24.88C24.0104 30.95 20.6904 30.95 18.6704 24.88L17.7804 22.2L15.1004 21.31C9.04039 19.3 9.04039 15.99 15.1104 13.96Z" fill="#0F6AD9"/>
<mask id="path-3-inside-1_357_3044" fill="white">
<path d="M20.1201 19.63L23.9301 15.81L20.1201 19.63Z"/>
</mask>
<path d="M20.1201 19.63L23.9301 15.81L20.1201 19.63Z" fill="#C1DEFD"/>
<path d="M20.1201 19.63L20.8282 20.3362L24.6382 16.5162L23.9301 15.81L23.2221 15.1038L19.4121 18.9238L20.1201 19.63Z" fill="#C1DEFD" mask="url(#path-3-inside-1_357_3044)"/>
<path d="M20.1196 20.38C19.9296 20.38 19.7396 20.31 19.5896 20.16C19.2996 19.87 19.2996 19.39 19.5896 19.1L23.3896 15.28C23.6796 14.99 24.1596 14.99 24.4496 15.28C24.7396 15.57 24.7396 16.05 24.4496 16.34L20.6496 20.16C20.4996 20.3 20.3096 20.38 20.1196 20.38Z" fill="#C1DEFD"/>
</svg>
