<svg width="24" height="24" viewBox="0 0 24 24" fill="none" xmlns="http://www.w3.org/2000/svg">
<path d="M16.4851 11.571C16.1996 11.4943 15.9018 11.4747 15.6087 11.5132C15.3155 11.5517 15.0329 11.6476 14.7768 11.7954C14.5208 11.9432 14.2964 12.14 14.1164 12.3746C13.9365 12.6092 13.8046 12.8769 13.7281 13.1625L13.1461 15.336C12.8372 16.4889 12.999 17.7173 13.5958 18.7509C14.1925 19.7846 15.1755 20.5388 16.3284 20.8477C17.4813 21.1567 18.7097 20.9949 19.7433 20.3981C20.777 19.8014 21.5312 18.8184 21.8401 17.6655L22.4221 15.4905C22.5761 14.9145 22.4952 14.3009 22.197 13.7845C21.8989 13.2681 21.408 12.8912 20.8321 12.7365L16.4851 11.571Z" fill="url(#paint0_radial_300_9871)"/>
<path d="M7.51509 11.571C7.80052 11.4945 8.0982 11.4751 8.39116 11.5137C8.68411 11.5523 8.96659 11.6482 9.22246 11.796C9.47834 11.9438 9.70259 12.1406 9.88243 12.375C10.0623 12.6095 10.1942 12.8771 10.2706 13.1625L10.8526 15.336C11.0144 15.9095 11.0606 16.5095 10.9887 17.101C10.9167 17.6925 10.728 18.2639 10.4334 18.7819C10.1389 19.2999 9.74437 19.7543 9.27281 20.1186C8.80125 20.483 8.26202 20.75 7.68643 20.9042C7.11084 21.0585 6.51034 21.0969 5.91979 21.0172C5.32924 20.9375 4.76039 20.7413 4.24627 20.44C3.73216 20.1387 3.283 19.7383 2.92488 19.262C2.56675 18.7857 2.30679 18.2431 2.16009 17.6655L1.57659 15.4905C1.42266 14.9142 1.50384 14.3005 1.80227 13.7841C2.1007 13.2676 2.59196 12.8908 3.16809 12.7365L7.51509 11.571Z" fill="url(#paint1_radial_300_9871)"/>
<path d="M9.75 10.5C9.15326 10.5 8.58097 10.7371 8.15901 11.159C7.73705 11.581 7.5 12.1533 7.5 12.75V16.5C7.5 17.6935 7.97411 18.8381 8.81802 19.682C9.66193 20.5259 10.8065 21 12 21C13.1935 21 14.3381 20.5259 15.182 19.682C16.0259 18.8381 16.5 17.6935 16.5 16.5V12.75C16.5 12.1533 16.2629 11.581 15.841 11.159C15.419 10.7371 14.8467 10.5 14.25 10.5H9.75Z" fill="url(#paint2_radial_300_9871)"/>
<path d="M12 1.5C11.0054 1.5 10.0516 1.89509 9.34835 2.59835C8.64509 3.30161 8.25 4.25544 8.25 5.25C8.25 6.24456 8.64509 7.19839 9.34835 7.90165C10.0516 8.60491 11.0054 9 12 9C12.9946 9 13.9484 8.60491 14.6517 7.90165C15.3549 7.19839 15.75 6.24456 15.75 5.25C15.75 4.25544 15.3549 3.30161 14.6517 2.59835C13.9484 1.89509 12.9946 1.5 12 1.5Z" fill="url(#paint3_radial_300_9871)"/>
<path d="M4.5 4.5C3.70435 4.5 2.94129 4.81607 2.37868 5.37868C1.81607 5.94129 1.5 6.70435 1.5 7.5C1.5 8.29565 1.81607 9.05871 2.37868 9.62132C2.94129 10.1839 3.70435 10.5 4.5 10.5C5.29565 10.5 6.05871 10.1839 6.62132 9.62132C7.18393 9.05871 7.5 8.29565 7.5 7.5C7.5 6.70435 7.18393 5.94129 6.62132 5.37868C6.05871 4.81607 5.29565 4.5 4.5 4.5Z" fill="url(#paint4_radial_300_9871)"/>
<path d="M19.5 4.5C18.7044 4.5 17.9413 4.81607 17.3787 5.37868C16.8161 5.94129 16.5 6.70435 16.5 7.5C16.5 8.29565 16.8161 9.05871 17.3787 9.62132C17.9413 10.1839 18.7044 10.5 19.5 10.5C20.2956 10.5 21.0587 10.1839 21.6213 9.62132C22.1839 9.05871 22.5 8.29565 22.5 7.5C22.5 6.70435 22.1839 5.94129 21.6213 5.37868C21.0587 4.81607 20.2956 4.5 19.5 4.5Z" fill="url(#paint5_radial_300_9871)"/>
<defs>
<radialGradient id="paint0_radial_300_9871" cx="0" cy="0" r="1" gradientUnits="userSpaceOnUse" gradientTransform="translate(16.2186 14.1593) rotate(78.837) scale(6.97371)">
<stop stop-color="#0078D4"/>
<stop offset="1" stop-color="#004695"/>
</radialGradient>
<radialGradient id="paint1_radial_300_9871" cx="0" cy="0" r="1" gradientUnits="userSpaceOnUse" gradientTransform="translate(3.82959 11.94) rotate(61.0557) scale(10.3557 7.45406)">
<stop stop-color="#008CE2"/>
<stop offset="1" stop-color="#0068C6"/>
</radialGradient>
<radialGradient id="paint2_radial_300_9871" cx="0" cy="0" r="1" gradientUnits="userSpaceOnUse" gradientTransform="translate(11.1325 14.1869) rotate(63.608) scale(6.33625 5.8186)">
<stop offset="0.339" stop-color="#3DCBFF"/>
<stop offset="1" stop-color="#14B1FF"/>
</radialGradient>
<radialGradient id="paint3_radial_300_9871" cx="0" cy="0" r="1" gradientUnits="userSpaceOnUse" gradientTransform="translate(11.278 4.13271) rotate(59.931) scale(4.68459)">
<stop offset="0.339" stop-color="#3DCBFF"/>
<stop offset="1" stop-color="#14B1FF"/>
</radialGradient>
<radialGradient id="paint4_radial_300_9871" cx="0" cy="0" r="1" gradientUnits="userSpaceOnUse" gradientTransform="translate(3.23653 6.31913) rotate(47.573) scale(4.91968)">
<stop stop-color="#008CE2"/>
<stop offset="1" stop-color="#0068C6"/>
</radialGradient>
<radialGradient id="paint5_radial_300_9871" cx="0" cy="0" r="1" gradientUnits="userSpaceOnUse" gradientTransform="translate(18.5368 6.18175) rotate(78.837) scale(4.40105)">
<stop stop-color="#0078D4"/>
<stop offset="1" stop-color="#004695"/>
</radialGradient>
</defs>
</svg>
