<svg width="190" height="94" viewBox="0 0 190 94" fill="none" xmlns="http://www.w3.org/2000/svg">
<path d="M23.298 75.8345C23.4631 75.1255 23.5439 74.4959 23.5406 73.9457C23.5313 73.3859 23.4688 72.8429 23.3531 72.3165L20.2744 71.6222L19.782 73.7376C19.7348 73.9402 19.643 74.0876 19.5065 74.1798C19.3623 74.2703 19.2082 74.2971 19.0443 74.2601L17.265 73.8588L18.5737 68.2371L25.4217 69.7816C25.6341 70.2805 25.8029 70.7901 25.9282 71.3105C26.0475 71.8212 26.1196 72.3582 26.1446 72.9215C26.1713 73.477 26.15 74.0626 26.0805 74.6784C26.0189 75.296 25.9074 75.9515 25.746 76.6449C25.4594 77.876 24.9808 78.9613 24.3104 79.9008C23.6399 80.8403 22.8343 81.6017 21.8936 82.185C20.9528 82.7683 19.9019 83.1545 18.7408 83.3437C17.5815 83.5251 16.3737 83.4741 15.1172 83.1907C13.8452 82.9038 12.7265 82.4342 11.7613 81.7819C10.7961 81.1296 10.0191 80.3393 9.43026 79.411C8.84322 78.4749 8.46506 77.4178 8.29577 76.2398C8.12648 75.0617 8.19874 73.7987 8.51253 72.4507C8.83359 71.0716 9.31791 69.9261 9.96551 69.0143C10.6071 68.0929 11.3373 67.3555 12.1561 66.8021L13.372 68.0358C13.619 68.2801 13.7081 68.5503 13.6392 68.8464C13.5956 69.0334 13.4888 69.2102 13.3185 69.3768C13.1122 69.5927 12.9041 69.8164 12.6941 70.0479C12.486 70.2716 12.2901 70.5308 12.1065 70.8256C11.9247 71.1127 11.7524 71.4469 11.5897 71.8285C11.4288 72.2022 11.2884 72.6462 11.1687 73.1605C10.9746 73.9942 10.9392 74.7816 11.0623 75.5229C11.1873 76.2563 11.4558 76.9197 11.8681 77.5129C12.2803 78.1061 12.8233 78.614 13.497 79.0365C14.1707 79.4591 14.9602 79.7725 15.8654 79.9767C16.8409 80.1967 17.7428 80.2566 18.5711 80.1563C19.3916 80.0543 20.1204 79.8169 20.7575 79.4439C21.3947 79.071 21.9326 78.5772 22.3714 77.9627C22.8023 77.3465 23.1112 76.6371 23.298 75.8345Z" fill="white"/>
<path d="M22.5097 53.2225C22.8897 52.5459 23.3474 51.9845 23.8826 51.5381C24.4217 51.0847 25.0177 50.767 25.6704 50.5849C26.3162 50.399 27.0094 50.3574 27.75 50.4599C28.4836 50.5586 29.2404 50.8202 30.0204 51.2447C30.2171 51.3518 30.3764 51.4521 30.4981 51.5457C30.6168 51.6285 30.701 51.7154 30.7509 51.8062C30.7976 51.8863 30.817 51.9743 30.8091 52.0701C30.7941 52.1622 30.7533 52.2675 30.6867 52.386L26.9604 59.019C28.1137 59.5466 29.0954 59.6937 29.9053 59.4606C30.7152 59.2275 31.3592 58.6854 31.8372 57.8345C32.0723 57.416 32.2249 57.0301 32.295 56.6766C32.3691 56.3162 32.409 55.9919 32.415 55.7037C32.4248 55.4085 32.4276 55.1504 32.4232 54.9295C32.4228 54.7016 32.4677 54.5074 32.5578 54.347C32.6166 54.2424 32.6886 54.1632 32.7738 54.1094C32.8591 54.0556 32.956 54.0219 33.0647 54.0081L34.4365 53.7711C34.6131 54.2407 34.7174 54.7164 34.7495 55.1983C34.7745 55.6764 34.7476 56.149 34.6687 56.6161C34.5867 57.0723 34.4602 57.518 34.2891 57.9532C34.122 58.3813 33.9327 58.7837 33.7211 59.1604C33.3018 59.9067 32.789 60.5337 32.1826 61.0415C31.5691 61.5455 30.8868 61.9028 30.1355 62.1132C29.3772 62.3197 28.5633 62.364 27.6937 62.2459C26.8172 62.1241 25.9046 61.805 24.956 61.2887C24.2182 60.8872 23.5926 60.3919 23.0794 59.8029C22.5591 59.2101 22.1835 58.564 21.9525 57.8645C21.7185 57.1543 21.6392 56.4053 21.7147 55.6176C21.7941 54.823 22.0591 54.0246 22.5097 53.2225ZM24.4047 54.1855C23.9815 54.9388 23.8647 55.6448 24.0543 56.3036C24.2439 56.9623 24.6989 57.5651 25.4193 58.112L28.1464 53.2576C27.8091 53.074 27.4675 52.9472 27.1214 52.8773C26.7683 52.8035 26.4265 52.7996 26.0958 52.8655C25.7652 52.9315 25.4563 53.073 25.1691 53.2902C24.875 53.5035 24.6202 53.8019 24.4047 54.1855Z" fill="white"/>
<path d="M42.2564 46.378C41.5404 47.165 40.7635 47.5731 39.9257 47.6024C39.082 47.6264 38.261 47.2867 37.4629 46.5831L32.3047 42.0364L31.4648 42.9595C31.3571 43.0778 31.2239 43.147 31.0651 43.167C30.9118 43.181 30.757 43.1193 30.601 42.9818L29.7188 42.2041L30.8082 40.5254L28.7076 37.842C28.6091 37.7126 28.5646 37.5773 28.5739 37.4363C28.5887 37.2893 28.6552 37.1508 28.7737 37.0206L29.8074 35.8845L32.715 38.4475L34.8955 36.0509L36.4798 37.4475L34.2994 39.844L39.3045 44.2558C39.5926 44.5098 39.8823 44.6371 40.1735 44.6379C40.4647 44.6387 40.718 44.5208 40.9334 44.2841C41.0572 44.148 41.1445 44.0224 41.1953 43.9072C41.2454 43.7807 41.2821 43.6691 41.3053 43.5723C41.3339 43.4695 41.3574 43.3783 41.3759 43.2986C41.3883 43.2136 41.4188 43.1445 41.4672 43.0912C41.5264 43.0261 41.5929 42.9888 41.6666 42.9791C41.7343 42.9641 41.8227 42.962 41.9318 42.9729L43.6096 43.2683C43.5889 43.8258 43.4592 44.3726 43.2203 44.9085C42.9815 45.4443 42.6602 45.9342 42.2564 46.378Z" fill="white"/>
<path d="M61.3357 31.7643L58.5019 33.3349L49.8857 18.2732L52.7196 16.7026L61.3357 31.7643Z" fill="white"/>
<path d="M69.5458 28.0273L65.9212 16.261L67.6575 15.7428C68.0255 15.633 68.3199 15.7329 68.5409 16.0426L69.0226 16.9132C69.1848 16.5977 69.3657 16.3016 69.5651 16.025C69.7721 15.7462 69.999 15.4906 70.2455 15.2584C70.4997 15.0239 70.7837 14.8181 71.0975 14.641C71.4112 14.4639 71.7674 14.3159 72.166 14.1969C72.81 14.0047 73.4152 13.9451 73.9818 14.0181C74.546 14.0835 75.0542 14.2658 75.5063 14.565C75.9637 14.8542 76.3615 15.2489 76.6998 15.7491C77.0433 16.2393 77.3163 16.8131 77.5189 17.4706L79.8258 24.9594L76.9856 25.807L74.6787 18.3183C74.4573 17.5996 74.1179 17.0956 73.6605 16.8064C73.2084 16.5072 72.6488 16.4571 71.9819 16.6562C71.4913 16.8026 71.0655 17.0507 70.7045 17.4005C70.3435 17.7504 70.0303 18.1736 69.7647 18.6703L72.386 27.1797L69.5458 28.0273Z" fill="white"/>
<path d="M93.0971 24.203L90.4113 24.3137L84.9962 12.2145L87.4541 12.1132C87.6699 12.1043 87.852 12.1488 88.0003 12.2468C88.1566 12.3444 88.2661 12.472 88.3288 12.6296L90.9823 19.1018C91.1345 19.4798 91.2624 19.8509 91.366 20.2149C91.4775 20.5786 91.5771 20.9429 91.6647 21.3076C91.721 20.9369 91.7853 20.566 91.8576 20.1947C91.9378 19.8231 92.0418 19.4425 92.1693 19.0529L94.3237 12.3825C94.3729 12.2203 94.4672 12.0843 94.6067 11.9745C94.7461 11.8647 94.9158 11.8056 95.1156 11.7974L97.4536 11.701L93.0971 24.203Z" fill="white"/>
<path d="M111.953 13.1868C112.853 13.3763 113.636 13.6924 114.301 14.1349C114.974 14.579 115.511 15.1213 115.912 15.7617C116.314 16.402 116.572 17.1349 116.687 17.9604C116.803 18.7858 116.757 19.6715 116.552 20.6174C116.345 21.5712 116.017 22.4014 115.569 23.1082C115.12 23.815 114.579 24.3838 113.945 24.8144C113.311 25.245 112.595 25.5275 111.796 25.6619C111.006 25.7979 110.16 25.7711 109.26 25.5816C108.359 25.3921 107.573 25.0752 106.9 24.6311C106.227 24.1869 105.687 23.6399 105.279 22.9901C104.88 22.3419 104.619 21.6043 104.495 20.7772C104.38 19.9517 104.426 19.0621 104.633 18.1084C104.839 17.1625 105.166 16.3361 105.614 15.6293C106.07 14.9242 106.614 14.3602 107.246 13.9373C107.886 13.5162 108.606 13.2384 109.404 13.1041C110.203 12.9697 111.053 12.9973 111.953 13.1868ZM109.744 23.3536C110.746 23.5645 111.559 23.3841 112.182 22.8123C112.814 22.2422 113.27 21.3083 113.552 20.0105C113.834 18.7128 113.807 17.6728 113.469 16.8905C113.139 16.1098 112.473 15.614 111.471 15.4031C110.454 15.1889 109.627 15.3746 108.993 15.9604C108.359 16.5384 107.903 17.4723 107.622 18.7622C107.342 20.0521 107.371 21.0882 107.708 21.8705C108.048 22.645 108.726 23.1393 109.744 23.3536Z" fill="white"/>
<path d="M131.827 14.0721L124.422 30.2938L121.711 29.0949L129.116 12.8733L131.827 14.0721Z" fill="white"/>
<path d="M137.376 37.3726L135.188 35.8117L138.501 23.0539L140.504 24.4823C140.68 24.6077 140.796 24.7541 140.851 24.9215C140.913 25.0935 140.92 25.2602 140.87 25.4216L138.906 32.0969C138.789 32.4851 138.658 32.853 138.511 33.2004C138.371 33.5525 138.221 33.8976 138.062 34.2358C138.338 33.9813 138.622 33.7314 138.912 33.4861C139.208 33.2455 139.528 33.0124 139.873 32.7868L145.755 28.9056C145.896 28.8093 146.055 28.7611 146.234 28.7609C146.413 28.7608 146.584 28.8188 146.747 28.9349L148.652 30.2937L137.376 37.3726Z" fill="white"/>
<path d="M159.046 40.9414C159.549 41.532 159.916 42.1529 160.145 42.8039C160.379 43.4611 160.464 44.1221 160.4 44.787C160.342 45.4467 160.131 46.0986 159.765 46.7427C159.406 47.3817 158.884 47.9839 158.199 48.5493C158.027 48.6919 157.874 48.8025 157.741 48.881C157.62 48.9605 157.507 49.0069 157.403 49.0203C157.31 49.0348 157.219 49.0212 157.132 48.9797C157.05 48.9331 156.965 48.858 156.877 48.7545L151.942 42.9642C151.024 43.836 150.529 44.6856 150.456 45.5131C150.384 46.3406 150.664 47.1258 151.297 47.8686C151.609 48.2339 151.919 48.5118 152.229 48.7023C152.543 48.8989 152.836 49.0513 153.107 49.1596C153.383 49.2739 153.627 49.3685 153.838 49.4433C154.054 49.5242 154.221 49.6347 154.341 49.7747C154.419 49.866 154.468 49.9605 154.488 50.058C154.508 50.1555 154.505 50.2567 154.478 50.3614L154.206 51.7066C153.697 51.7015 153.208 51.6277 152.74 51.4853C152.278 51.3377 151.84 51.1444 151.426 50.9053C151.024 50.6672 150.647 50.392 150.297 50.0796C149.952 49.7733 149.639 49.4558 149.359 49.127C148.803 48.4755 148.395 47.7805 148.134 47.0421C147.878 46.2986 147.787 45.5441 147.86 44.7786C147.939 44.008 148.192 43.2442 148.618 42.4872C149.051 41.7251 149.684 41.0002 150.517 40.3126C151.165 39.7777 151.861 39.3795 152.605 39.1179C153.355 38.8512 154.103 38.7365 154.85 38.7737C155.607 38.8119 156.346 39.0062 157.065 39.3565C157.789 39.7129 158.449 40.2412 159.046 40.9414ZM157.447 42.3394C156.887 41.6819 156.26 41.3227 155.567 41.262C154.874 41.2014 154.138 41.4045 153.359 41.8715L156.971 46.1092C157.267 45.8647 157.511 45.5959 157.703 45.3028C157.9 45.0046 158.028 44.6918 158.085 44.3644C158.143 44.0371 158.12 43.7027 158.019 43.3614C157.923 43.015 157.733 42.6743 157.447 42.3394Z" fill="white"/>
<path d="M160.559 65.9723C160.392 65.6268 160.445 65.3235 160.718 65.0624L161.688 64.3412C161.316 64.2334 160.964 64.1028 160.632 63.9496C160.299 63.7963 159.986 63.6079 159.691 63.3842C159.399 63.1678 159.131 62.9091 158.887 62.6082C158.64 62.318 158.422 61.9785 158.233 61.5898C157.94 60.9852 157.798 60.3714 157.807 59.7485C157.816 59.1255 157.97 58.5182 158.27 57.9266C158.581 57.3387 159.042 56.7773 159.653 56.2423C160.269 55.7145 161.033 55.2362 161.945 54.8075C162.77 54.4196 163.592 54.1705 164.41 54.0601C165.227 53.9498 165.998 53.9809 166.722 54.1534C167.446 54.3258 168.094 54.6355 168.666 55.0825C169.246 55.526 169.712 56.1112 170.065 56.8382C170.365 57.4572 170.52 58.0339 170.531 58.5682C170.548 59.0992 170.474 59.6157 170.309 60.1177L176.195 57.3513L177.489 60.0181L161.35 67.6026L160.559 65.9723ZM160.802 61.4964C161.071 62.0506 161.415 62.4676 161.835 62.7474C162.256 63.0272 162.763 63.2395 163.358 63.3842L168.354 61.0364C168.576 60.5605 168.676 60.1069 168.654 59.6756C168.635 59.2515 168.526 58.8342 168.327 58.424C168.131 58.0209 167.877 57.6895 167.565 57.4299C167.255 57.1774 166.889 57.0092 166.466 56.9252C166.054 56.845 165.579 56.856 165.042 56.9582C164.512 57.057 163.925 57.2578 163.28 57.5606C162.629 57.8669 162.099 58.1776 161.692 58.4927C161.295 58.8116 161 59.1363 160.804 59.4668C160.616 59.7938 160.525 60.1283 160.531 60.4703C160.544 60.8088 160.634 61.1509 160.802 61.4964Z" fill="white"/>
<path d="M173.622 83.0165L174.15 89.21L171.687 89.4135L171.159 83.2199L173.622 83.0165Z" fill="white"/>
</svg>
