<svg width="187" height="93" viewBox="0 0 187 93" fill="none" xmlns="http://www.w3.org/2000/svg">
<path d="M164.202 10.4834C164.097 11.2037 164.069 11.8384 164.119 12.3874C164.175 12.9454 164.282 13.4827 164.441 13.9992L167.564 14.4567L167.877 12.3075C167.908 12.1016 167.987 11.9475 168.115 11.845C168.251 11.7436 168.402 11.7051 168.568 11.7295L170.373 11.9939L169.54 17.7055L162.594 16.6878C162.341 16.206 162.13 15.7102 161.962 15.2005C161.801 14.6998 161.684 14.1692 161.612 13.6089C161.539 13.0565 161.511 12.4702 161.529 11.8503C161.539 11.2291 161.595 10.5662 161.698 9.8617C161.88 8.61092 162.266 7.49099 162.854 6.50191C163.443 5.51283 164.182 4.69118 165.069 4.03696C165.957 3.38274 166.971 2.91679 168.111 2.63913C169.25 2.36938 170.456 2.32787 171.731 2.5146C173.021 2.70365 174.174 3.08683 175.189 3.66412C176.204 4.24142 177.044 4.97084 177.708 5.85239C178.37 6.74185 178.835 7.76808 179.102 8.93107C179.369 10.0941 179.403 11.3603 179.203 12.7299C178.999 14.131 178.612 15.3115 178.044 16.2712C177.482 17.24 176.817 18.032 176.048 18.647L174.735 17.5086C174.469 17.2836 174.357 17.0207 174.401 16.7199C174.429 16.5299 174.52 16.3452 174.676 16.1658C174.863 15.9346 175.052 15.6954 175.241 15.4482C175.43 15.209 175.603 14.9353 175.761 14.6269C175.918 14.3265 176.062 13.9797 176.192 13.5864C176.321 13.201 176.423 12.7471 176.5 12.2246C176.623 11.3775 176.593 10.5888 176.408 9.85831C176.222 9.13576 175.9 8.49418 175.44 7.93357C174.98 7.37297 174.397 6.90754 173.691 6.53728C172.985 6.16702 172.173 5.91462 171.254 5.78008C170.265 5.63511 169.362 5.64432 168.546 5.80773C167.738 5.9723 167.032 6.2651 166.429 6.68612C165.826 7.10714 165.332 7.64113 164.947 8.2881C164.569 8.93622 164.321 9.66798 164.202 10.4834Z" fill="#1B1C1E"/>
<path d="M167.786 33.3314C167.467 34.0386 167.061 34.6363 166.568 35.1245C166.073 35.6199 165.509 35.9836 164.878 36.2155C164.254 36.4507 163.57 36.5448 162.828 36.4978C162.093 36.4542 161.321 36.2489 160.512 35.882C160.308 35.7895 160.142 35.7009 160.013 35.6162C159.889 35.5421 159.798 35.4614 159.741 35.374C159.688 35.2972 159.661 35.2104 159.661 35.1137C159.668 35.0203 159.7 34.9116 159.756 34.7876L162.886 27.8534C161.699 27.4114 160.714 27.3379 159.931 27.6328C159.148 27.9278 158.556 28.5201 158.155 29.4096C157.957 29.8471 157.839 30.2458 157.799 30.6056C157.756 30.9727 157.744 31.301 157.762 31.5905C157.778 31.8873 157.797 32.1464 157.82 32.3676C157.84 32.5962 157.812 32.7943 157.736 32.962C157.686 33.0714 157.622 33.1563 157.542 33.2166C157.462 33.277 157.369 33.3182 157.262 33.3402L155.923 33.6814C155.709 33.2238 155.565 32.7545 155.492 32.2736C155.427 31.796 155.414 31.3199 155.452 30.8455C155.495 30.3817 155.583 29.9251 155.715 29.4757C155.845 29.0337 155.998 28.6158 156.176 28.222C156.528 27.4419 156.983 26.7742 157.541 26.2191C158.106 25.6672 158.752 25.2575 159.478 24.9897C160.212 24.7252 161.015 24.6194 161.886 24.6722C162.765 24.7283 163.696 24.9794 164.68 25.4256C165.445 25.7727 166.106 26.2222 166.665 26.7742C167.23 27.3295 167.657 27.9492 167.945 28.6334C168.237 29.3281 168.379 30.0733 168.371 30.869C168.359 31.6721 168.164 32.4928 167.786 33.3314ZM165.827 32.5085C166.183 31.721 166.238 31.0041 165.995 30.3577C165.751 29.7113 165.249 29.141 164.489 28.6468L162.198 33.7217C162.548 33.8804 162.897 33.9817 163.246 34.0257C163.602 34.0731 163.941 34.0512 164.263 33.9601C164.585 33.869 164.879 33.7037 165.145 33.4643C165.419 33.2281 165.646 32.9095 165.827 32.5085Z" fill="#1B1C1E"/>
<path d="M148.361 41.8153C149.004 40.9677 149.738 40.4963 150.563 40.4012C151.395 40.311 152.234 40.5884 153.08 41.2336L158.548 45.4027L159.302 44.4084C159.399 44.281 159.525 44.201 159.68 44.1684C159.83 44.1423 159.988 44.1922 160.154 44.3183L161.089 45.0314L160.15 46.8053L162.444 49.3397C162.552 49.4622 162.607 49.5947 162.61 49.7373C162.607 49.8863 162.553 50.0308 162.446 50.1711L161.518 51.3948L158.436 49.0446L156.477 51.6259L154.798 50.3453L156.756 47.764L151.451 43.7186C151.145 43.4858 150.849 43.3804 150.561 43.4024C150.273 43.4243 150.032 43.5628 149.839 43.8178C149.728 43.9643 149.652 44.0976 149.611 44.2174C149.572 44.3485 149.545 44.4636 149.53 44.5629C149.51 44.6684 149.494 44.762 149.482 44.8437C149.477 44.9301 149.453 45.002 149.409 45.0594C149.356 45.1295 149.293 45.1723 149.221 45.1878C149.156 45.2082 149.068 45.2172 148.96 45.2148L147.278 45.0491C147.253 44.4867 147.336 43.9266 147.528 43.3689C147.721 42.8112 147.998 42.2934 148.361 41.8153Z" fill="#1B1C1E"/>
<path d="M131.147 58.0971L133.832 56.2835L143.512 70.6849L140.827 72.4985L131.147 58.0971Z" fill="#1B1C1E"/>
<path d="M123.766 62.2368L128.26 73.6992L126.574 74.3635C126.217 74.5043 125.917 74.4291 125.674 74.138L125.129 73.3078C124.992 73.6371 124.834 73.9484 124.657 74.2418C124.473 74.5381 124.267 74.8127 124.039 75.0657C123.805 75.3216 123.538 75.5513 123.24 75.7548C122.942 75.9583 122.599 76.1364 122.212 76.2889C121.587 76.5352 120.99 76.6457 120.421 76.6204C119.856 76.6025 119.337 76.463 118.865 76.2018C118.389 75.951 117.963 75.5897 117.589 75.118C117.211 74.6566 116.896 74.1057 116.645 73.4652L113.785 66.1699L116.542 65.0832L119.403 72.3785C119.677 73.0786 120.053 73.5541 120.529 73.8049C121.001 74.0661 121.561 74.0691 122.208 73.8139C122.684 73.6262 123.089 73.3422 123.421 72.962C123.753 72.5817 124.032 72.1321 124.258 71.6131L121.008 63.3235L123.766 62.2368Z" fill="#1B1C1E"/>
<path d="M100.393 68.1229L103.061 67.795L109.415 79.4189L106.973 79.7189C106.759 79.7453 106.574 79.7156 106.418 79.6299C106.255 79.5452 106.135 79.4269 106.06 79.2749L102.904 73.0373C102.723 72.6727 102.566 72.3132 102.434 71.9586C102.294 71.6051 102.166 71.25 102.05 70.8935C102.023 71.2676 101.988 71.6426 101.945 72.0186C101.895 72.3956 101.821 72.7835 101.725 73.1822L100.105 80.0067C100.069 80.1724 99.9859 80.3156 99.8556 80.4364C99.7253 80.5572 99.5609 80.6298 99.3624 80.6542L97.0398 80.9396L100.393 68.1229Z" fill="#1B1C1E"/>
<path d="M82.7117 80.7085C81.7996 80.5884 80.994 80.3331 80.2948 79.9425C79.5877 79.5508 79.0077 79.0509 78.5549 78.4425C78.102 77.8342 77.7838 77.1226 77.6001 76.3076C77.4164 75.4927 77.3874 74.6053 77.5131 73.6455C77.6399 72.6778 77.897 71.824 78.2843 71.0843C78.6717 70.3445 79.163 69.7354 79.7582 69.257C80.3533 68.7786 81.0429 68.4418 81.827 68.2464C82.603 68.05 83.4471 68.0119 84.3593 68.132C85.2714 68.2521 86.081 68.508 86.7881 68.8996C87.4953 69.2913 88.0787 69.7957 88.5384 70.413C88.9902 71.0293 89.3119 71.7454 89.5035 72.5614C89.6872 73.3763 89.7157 74.2677 89.5889 75.2354C89.4632 76.1952 89.2066 77.045 88.8193 77.7848C88.424 78.5235 87.9292 79.1281 87.3351 79.5985C86.733 80.068 86.04 80.4003 85.256 80.5957C84.4719 80.791 83.6239 80.8286 82.7117 80.7085ZM84.0631 70.3927C83.0479 70.259 82.2537 70.5014 81.6805 71.1199C81.0994 71.7373 80.7226 72.7044 80.5501 74.0211C80.3776 75.3379 80.492 76.3737 80.8933 77.1285C81.2868 77.8824 81.9911 78.3261 83.0063 78.4598C84.0374 78.5955 84.8446 78.3467 85.4278 77.7134C86.0099 77.0881 86.3868 76.121 86.5582 74.8122C86.7297 73.5034 86.6147 72.4715 86.2134 71.7167C85.811 70.9698 85.0942 70.5284 84.0631 70.3927Z" fill="#1B1C1E"/>
<path d="M62.6011 81.5939L68.5711 64.791L71.3624 65.7877L65.3924 82.5907L62.6011 81.5939Z" fill="#1B1C1E"/>
<path d="M55.8425 58.4482L58.1368 59.8488L55.9242 72.9228L53.8245 71.641C53.6401 71.5285 53.5135 71.3903 53.4446 71.2263C53.3688 71.0583 53.3486 70.8912 53.3838 70.7253L54.7696 63.8669C54.8529 63.4678 54.9525 63.0881 55.0684 62.7277C55.1775 62.3631 55.2969 62.0049 55.4265 61.6528C55.174 61.9298 54.9146 62.2027 54.6485 62.4713C54.3755 62.7359 54.0779 62.9947 53.7556 63.2479L48.2626 67.5991C48.1318 67.7067 47.9779 67.7674 47.801 67.7813C47.6241 67.7951 47.4503 67.7499 47.2796 67.6457L45.2823 66.4265L55.8425 58.4482Z" fill="#1B1C1E"/>
<path d="M34.5003 57.1623C33.9562 56.6089 33.5453 56.014 33.2674 55.3776C32.984 54.7355 32.8475 54.0775 32.8581 53.4035C32.8629 52.7352 33.0204 52.0623 33.3304 51.3849C33.6347 50.7131 34.1027 50.0651 34.7344 49.441C34.8937 49.2835 35.0359 49.16 35.1608 49.0702C35.2745 48.9804 35.3822 48.9246 35.4841 48.9027C35.5746 48.8807 35.665 48.887 35.7551 48.9216C35.8396 48.9619 35.9295 49.0305 36.0248 49.1275L41.3584 54.5529C42.1959 53.6017 42.6177 52.707 42.6238 51.8688C42.6299 51.0305 42.2908 50.2634 41.6066 49.5674C41.2701 49.2251 40.9414 48.9707 40.6206 48.8041C40.2941 48.6318 39.9928 48.5022 39.7166 48.4152C39.4348 48.3225 39.1867 48.2471 38.9724 48.1889C38.7526 48.125 38.5781 48.0274 38.4491 47.8962C38.365 47.8106 38.3092 47.7196 38.2816 47.6231C38.2541 47.5266 38.2492 47.4246 38.2669 47.3171L38.4294 45.9419C38.9325 45.9059 39.421 45.9407 39.8948 46.0461C40.363 46.1571 40.811 46.3161 41.2389 46.5231C41.6554 46.7301 42.0491 46.9765 42.42 47.2624C42.7852 47.5426 43.1192 47.8367 43.4221 48.1448C44.0222 48.7552 44.4806 49.4212 44.7974 50.1429C45.1085 50.8701 45.2584 51.6217 45.2471 52.3976C45.2301 53.1792 45.0408 53.9679 44.679 54.7639C44.3116 55.5656 43.7438 56.3459 42.9755 57.105C42.378 57.6954 41.7221 58.1522 41.0079 58.4755C40.2879 58.8045 39.5578 58.9804 38.8175 59.0034C38.0659 59.0262 37.3211 58.8905 36.5831 58.5963C35.8395 58.2963 35.1452 57.8183 34.5003 57.1623ZM35.9691 55.6267C36.5748 56.2428 37.2223 56.5534 37.9115 56.5584C38.6008 56.5634 39.3118 56.2995 40.0445 55.7667L36.141 51.7961C35.8679 52.066 35.6482 52.3561 35.4821 52.6665C35.3103 52.9824 35.2091 53.3073 35.1784 53.6413C35.1477 53.9753 35.1962 54.3098 35.3237 54.6449C35.4455 54.9856 35.6606 55.3129 35.9691 55.6267Z" fill="#1B1C1E"/>
<path d="M31.6158 31.0658C31.8081 31.3982 31.7787 31.7068 31.5276 31.9916L30.6208 32.7965C30.9979 32.8733 31.3569 32.9746 31.6977 33.1004C32.0384 33.2261 32.3636 33.3887 32.6731 33.5882C32.9785 33.7807 33.2635 34.0176 33.5278 34.2988C33.7951 34.5691 34.0369 34.8912 34.2532 35.2652C34.5898 35.8468 34.7772 36.4504 34.8156 37.0759C34.8539 37.7013 34.7471 38.3233 34.4949 38.9419C34.2319 39.5576 33.8176 40.1594 33.252 40.7473C32.6824 41.3284 31.9619 41.8723 31.0905 42.3789C30.3021 42.8373 29.5069 43.1563 28.7049 43.3357C27.903 43.5151 27.1369 43.5488 26.4066 43.4367C25.6763 43.3246 25.0105 43.0685 24.4094 42.6684C23.8014 42.2724 23.295 41.7247 22.8904 41.0253C22.5459 40.4298 22.3482 39.8645 22.2975 39.3295C22.2399 38.7986 22.274 38.2744 22.3998 37.757L16.7772 41.0263L15.2929 38.4607L30.7084 29.4974L31.6158 31.0658ZM31.7152 35.5749C31.4067 35.0417 31.0337 34.6525 30.596 34.4072C30.1584 34.162 29.6394 33.9918 29.0391 33.8966L24.2671 36.6713C24.0826 37.1672 24.0179 37.6305 24.073 38.0612C24.1241 38.4849 24.2638 38.8942 24.4921 39.2889C24.7165 39.6767 24.9934 39.9876 25.3229 40.2217C25.6484 40.4488 26.024 40.5868 26.4496 40.6354C26.8642 40.6812 27.3338 40.6303 27.8584 40.4826C28.376 40.3389 28.9426 40.0881 29.5581 39.7302C30.1806 39.3683 30.6816 39.0122 31.0612 38.662C31.4299 38.3088 31.6985 37.9583 31.8669 37.6105C32.0285 37.2667 32.0934 36.9235 32.0616 36.5811C32.023 36.2427 31.9075 35.9073 31.7152 35.5749Z" fill="#1B1C1E"/>
<path d="M17.112 15.2794L16.1008 9.14619L18.5395 8.74206L19.5508 14.8752L17.112 15.2794Z" fill="#1B1C1E"/>
</svg>
