<svg width="25" height="24" viewBox="0 0 25 24" fill="none" xmlns="http://www.w3.org/2000/svg">
<path d="M19.674 8.174L21.587 6.261M19.674 15.826L21.587 17.739M20.152 12H23.5M5.326 8.174L3.413 6.261M5.326 15.826L3.413 17.74M4.848 12H1.5" stroke="#191919" stroke-linecap="round" stroke-linejoin="round"/>
<path d="M17.2211 17.997C17.2053 18.0388 17.1827 18.0777 17.1541 18.112L12.8501 22.847C12.8049 22.8956 12.7501 22.9343 12.6891 22.9606C12.6282 22.987 12.5625 23.0004 12.4961 23V19.404L17.2211 17.997Z" fill="#66E1FF" stroke="#191919" stroke-linecap="round" stroke-linejoin="round"/>
<path d="M17.282 4.922V17.787C17.282 17.8623 17.263 17.9323 17.225 17.997L12.499 19.403V6.127L17.234 4.711C17.2651 4.77668 17.2815 4.84934 17.282 4.922Z" fill="#66E1FF" stroke="#191919" stroke-linecap="round" stroke-linejoin="round"/>
<path d="M17.23 4.711L12.5 6.127V1C12.6074 1.0023 12.7112 1.03912 12.796 1.105L17.1 4.55C17.1542 4.5943 17.1985 4.6485 17.23 4.711Z" fill="#66E1FF" stroke="#191919" stroke-linecap="round" stroke-linejoin="round"/>
<path d="M7.77006 17.997C7.78582 18.0388 7.80847 18.0777 7.83706 18.112L12.1421 22.847C12.1873 22.8956 12.2421 22.9343 12.303 22.9606C12.364 22.9869 12.4297 23.0004 12.4961 23V19.403L7.77006 17.997ZM7.71706 4.922V17.787C7.71706 17.8623 7.73606 17.9323 7.77406 17.997L12.5001 19.403V6.127L7.76106 4.711C7.73137 4.77699 7.71636 4.84964 7.71706 4.922Z" fill="#C2F3FF" stroke="#191919" stroke-linecap="round" stroke-linejoin="round"/>
<path d="M7.76001 4.711L12.5 6.127V1C12.3923 1.00208 12.2881 1.03891 12.203 1.105L7.89801 4.55C7.84128 4.59358 7.79456 4.64882 7.76101 4.712" fill="#C2F3FF"/>
<path d="M7.76001 4.711L12.5 6.127V1C12.3923 1.00208 12.2881 1.03891 12.203 1.105L7.89801 4.55C7.84128 4.59358 7.79456 4.64882 7.76101 4.712" stroke="#191919" stroke-linecap="round" stroke-linejoin="round"/>
</svg>
