<svg width="217" height="217" viewBox="0 0 217 217" fill="none" xmlns="http://www.w3.org/2000/svg">
<path d="M109.547 128.582C109.547 130.678 108.94 132.076 107.708 132.775C106.476 133.492 104.931 133.308 103.111 132.26L77.365 117.383C75.526 116.334 73.9996 114.734 72.7675 112.62C71.5354 110.486 70.9102 108.372 70.9102 106.275C70.9102 104.179 71.5354 102.781 72.7675 102.082C73.9996 101.383 75.526 101.549 77.365 102.616L88.7667 109.199L103.111 117.475C104.931 118.523 106.476 120.123 107.708 122.256C108.37 123.396 108.867 124.536 109.161 125.676C109.418 126.651 109.547 127.626 109.547 128.582Z" fill="#229EFF" fill-opacity="0.3" stroke="#0B0B0F" stroke-opacity="0.8" stroke-width="0.919491" stroke-linecap="round" stroke-linejoin="round"/>
<path d="M144.709 87.0762C144.617 86.9107 144.525 86.7268 144.415 86.5429C141.877 82.2029 138.861 79.003 135.312 76.9618L127.422 72.4011L69.0531 38.6925L45.1647 24.9001C41.6155 22.8589 38.5811 22.5646 36.0617 23.999C33.5423 25.4335 32.2734 28.1919 32.2734 32.2377V135.699C32.2734 139.763 33.5423 143.974 36.0617 148.314C38.5811 152.673 41.6155 155.873 45.1647 157.914L135.312 209.957C138.861 211.998 141.877 212.311 144.415 210.876C146.934 209.424 148.185 206.683 148.185 202.619V99.1583C148.185 95.2596 147.026 91.2507 144.709 87.0762ZM88.3808 151.183C87.1487 151.882 85.6223 151.716 83.8017 150.668L58.0376 135.791C56.217 134.743 54.6906 133.143 53.4585 131.009C52.208 128.895 51.6011 126.78 51.6011 124.683C51.6011 122.587 52.208 121.189 53.4585 120.49C54.6906 119.773 56.217 119.957 58.0376 121.005L72.5472 129.391L83.8017 135.883C85.6223 136.931 87.1487 138.531 88.3808 140.646C89.0428 141.804 89.5394 142.944 89.852 144.085C90.1094 145.059 90.2382 146.034 90.2382 146.99C90.2382 149.087 89.6129 150.484 88.3808 151.183ZM107.709 132.775C106.476 133.492 104.932 133.308 103.111 132.26L77.3653 117.383C75.5263 116.334 74 114.734 72.7678 112.62C71.5357 110.486 70.9105 108.372 70.9105 106.275C70.9105 104.179 71.5357 102.781 72.7678 102.082C74 101.383 75.5263 101.549 77.3653 102.616L88.767 109.199L103.111 117.475C104.932 118.523 106.476 120.123 107.709 122.256C108.371 123.396 108.867 124.536 109.161 125.676C109.419 126.651 109.548 127.626 109.548 128.582C109.548 130.678 108.941 132.076 107.709 132.775ZM127.018 114.385C125.786 115.084 124.259 114.9 122.439 113.852L96.6746 98.9744C94.854 97.9262 93.3277 96.3446 92.0956 94.2114C90.845 92.0782 90.2382 89.9634 90.2382 87.8669C90.2382 85.7705 90.845 84.3912 92.0956 83.674C93.3277 82.9752 94.854 83.1407 96.6746 84.2073L108.076 90.7909L122.439 99.0663C124.259 100.133 125.786 101.714 127.018 103.848C127.68 104.988 128.176 106.128 128.471 107.268C128.746 108.243 128.875 109.218 128.875 110.174C128.875 112.27 128.25 113.668 127.018 114.385Z" fill="#229EFF" fill-opacity="0.3" stroke="#0B0B0F" stroke-opacity="0.8" stroke-width="0.919491" stroke-linecap="round" stroke-linejoin="round"/>
<path d="M128.875 110.174C128.875 112.27 128.25 113.668 127.018 114.385C125.786 115.084 124.259 114.9 122.439 113.852L96.6747 98.9744C94.8541 97.9262 93.3278 96.3446 92.0957 94.2114C90.8451 92.0782 90.2383 89.9634 90.2383 87.8669C90.2383 85.7705 90.8451 84.3912 92.0957 83.674C93.3278 82.9752 94.8541 83.1407 96.6747 84.2073L108.076 90.7909L122.439 99.0663C124.259 100.133 125.786 101.714 127.018 103.848C127.68 104.988 128.176 106.128 128.471 107.268C128.747 108.243 128.875 109.218 128.875 110.174Z" fill="#229EFF" fill-opacity="0.3" stroke="#0B0B0F" stroke-opacity="0.8" stroke-width="0.919491" stroke-linecap="round" stroke-linejoin="round"/>
<path d="M90.2386 146.99C90.2386 149.086 89.6133 150.484 88.3812 151.183C87.1491 151.882 85.6227 151.716 83.8022 150.668L58.038 135.791C56.2174 134.742 54.6911 133.142 53.4589 131.009C52.2084 128.894 51.6016 126.78 51.6016 124.683C51.6016 122.587 52.2084 121.189 53.4589 120.49C54.6911 119.773 56.2174 119.957 58.038 121.005L72.5476 129.391L83.8022 135.883C85.6227 136.931 87.1491 138.531 88.3812 140.646C89.0433 141.804 89.5398 142.944 89.8524 144.084C90.1099 145.059 90.2386 146.034 90.2386 146.99Z" fill="#229EFF" fill-opacity="0.3" stroke="#0B0B0F" stroke-opacity="0.8" stroke-width="0.919491" stroke-linecap="round" stroke-linejoin="round"/>
<path d="M184.965 80.7683V184.229C184.965 188.293 183.715 191.034 181.195 192.486L144.415 210.876C146.935 209.423 148.185 206.683 148.185 202.619V99.1581C148.185 95.2595 147.027 91.2505 144.71 87.076C144.618 86.9105 144.526 86.7266 144.415 86.5427C141.878 82.2027 138.862 79.0029 135.312 76.9616L127.423 72.4009L69.0539 38.6924L45.1655 24.9C41.6163 22.8587 38.5819 22.5645 36.0625 23.9989L72.8422 5.60915C75.3616 4.17475 78.396 4.46898 81.9452 6.51026L172.092 58.5718C175.641 60.6131 178.657 63.8129 181.195 68.1529C183.715 72.5113 184.965 76.7042 184.965 80.7683Z" fill="#229EFF" fill-opacity="0.3" stroke="#0B0B0F" stroke-opacity="0.8" stroke-width="0.919491" stroke-linecap="round" stroke-linejoin="round"/>
</svg>
