<svg width="32" height="32" viewBox="0 0 32 32" fill="none" xmlns="http://www.w3.org/2000/svg">
<path d="M16 2.66669V8.00002M16 8.00002L11.3347 11.732C9.71067 13.0307 9.33333 13.8174 9.33333 15.8974V29.3334M16 8.00002L20.6653 11.732C22.2893 13.032 22.6667 13.816 22.6667 15.8974V29.3334M18.6667 5.33335H13.3333M22.6667 29.3334H9.33333M22.6667 29.3334H25.3333C26.5907 29.3334 27.2187 29.3334 27.6093 28.9427C28 28.552 28 27.924 28 26.6667V21.9627C28 20.3587 28 19.5574 27.6013 18.912C27.204 18.268 26.4867 17.9094 25.052 17.192L22.6667 16M9.33333 29.3334H6.66667C5.40933 29.3334 4.78133 29.3334 4.39067 28.9427C4 28.552 4 27.924 4 26.6667V21.964C4 20.36 4 19.5587 4.39867 18.912C4.796 18.268 5.51333 17.9094 6.948 17.192L9.33333 16" stroke="#0F6AD9" stroke-width="2" stroke-linecap="round" stroke-linejoin="round"/>
<path d="M13.334 29.3333V24C13.334 23.2927 13.6149 22.6145 14.115 22.1144C14.6151 21.6143 15.2934 21.3333 16.0007 21.3333C16.7079 21.3333 17.3862 21.6143 17.8863 22.1144C18.3864 22.6145 18.6673 23.2927 18.6673 24V29.3333" stroke="#0F6AD9" stroke-width="2" stroke-linecap="round" stroke-linejoin="round"/>
<path d="M16.0093 14.6667H15.998" stroke="#0F6AD9" stroke-width="2.66667" stroke-linecap="round" stroke-linejoin="round"/>
</svg>
