<svg width="22" height="20" viewBox="0 0 22 20" fill="none" xmlns="http://www.w3.org/2000/svg">
<path d="M11.0003 1.59999C10.3637 1.59999 9.7533 1.85285 9.30321 2.30294C8.85312 2.75302 8.60027 3.36347 8.60027 3.99999C8.60027 4.63651 8.85312 5.24696 9.30321 5.69705C9.7533 6.14714 10.3637 6.39999 11.0003 6.39999C11.6368 6.39999 12.2472 6.14714 12.6973 5.69705C13.1474 5.24696 13.4003 4.63651 13.4003 3.99999C13.4003 3.36347 13.1474 2.75302 12.6973 2.30294C12.2472 1.85285 11.6368 1.59999 11.0003 1.59999ZM7.40027 3.99999C7.40027 3.04521 7.77955 2.12954 8.45468 1.45441C9.12981 0.779279 10.0455 0.399994 11.0003 0.399994C11.955 0.399994 12.8707 0.779279 13.5459 1.45441C14.221 2.12954 14.6003 3.04521 14.6003 3.99999C14.6003 4.95477 14.221 5.87045 13.5459 6.54558C12.8707 7.22071 11.955 7.59999 11.0003 7.59999C10.0455 7.59999 9.12981 7.22071 8.45468 6.54558C7.77955 5.87045 7.40027 4.95477 7.40027 3.99999ZM5.06387 9.99519C5.02307 10.1904 5.00267 10.392 5.00267 10.6V11.254L1.84547 12.1C1.69176 12.1411 1.56066 12.2415 1.481 12.3792C1.40134 12.517 1.37963 12.6807 1.42067 12.8344L2.19707 15.7324C2.42486 16.5811 2.95521 17.3172 3.68818 17.8019C4.42115 18.2867 5.3061 18.4866 6.17627 18.364C6.45227 18.736 6.77027 19.0768 7.12307 19.3756L6.91787 19.4356C6.30895 19.5989 5.67383 19.6407 5.04876 19.5586C4.4237 19.4764 3.82094 19.2719 3.27491 18.9568C2.72888 18.6417 2.25029 18.222 1.86645 17.7219C1.48261 17.2218 1.20106 16.6509 1.03787 16.042L0.261466 13.144C0.200315 12.9157 0.18474 12.6775 0.21563 12.4431C0.24652 12.2088 0.323271 11.9828 0.441499 11.7781C0.559728 11.5734 0.717119 11.394 0.904685 11.2501C1.09225 11.1062 1.30632 11.0007 1.53467 10.9396L5.06387 9.99519ZM17.0027 11.254V10.6C17.0019 10.392 16.9819 10.1904 16.9427 9.99519L20.4707 10.9408C20.9316 11.0645 21.3245 11.3663 21.5631 11.7796C21.8016 12.193 21.8662 12.6842 21.7427 13.1452L20.9663 16.0432C20.7984 16.6694 20.5054 17.2551 20.105 17.765C19.7046 18.2748 19.205 18.6983 18.6365 19.0098C18.0679 19.3214 17.4422 19.5145 16.7969 19.5775C16.1517 19.6406 15.5004 19.5723 14.8823 19.3768C15.2367 19.076 15.5523 18.7388 15.8291 18.3652C16.6992 18.4874 17.584 18.2872 18.3167 17.8022C19.0495 17.3173 19.5795 16.5811 19.8071 15.7324L20.5847 12.8344C20.6257 12.6807 20.604 12.517 20.5243 12.3792C20.4447 12.2415 20.3136 12.1411 20.1599 12.1L17.0027 11.254ZM17.0003 5.79999C17.0003 5.3226 17.1899 4.86477 17.5275 4.5272C17.865 4.18964 18.3229 3.99999 18.8003 3.99999C19.2777 3.99999 19.7355 4.18964 20.0731 4.5272C20.4106 4.86477 20.6003 5.3226 20.6003 5.79999C20.6003 6.27738 20.4106 6.73522 20.0731 7.07279C19.7355 7.41035 19.2777 7.59999 18.8003 7.59999C18.3229 7.59999 17.865 7.41035 17.5275 7.07279C17.1899 6.73522 17.0003 6.27738 17.0003 5.79999ZM18.8003 2.79999C18.0046 2.79999 17.2416 3.11606 16.6789 3.67867C16.1163 4.24128 15.8003 5.00434 15.8003 5.79999C15.8003 6.59564 16.1163 7.35871 16.6789 7.92131C17.2416 8.48392 18.0046 8.79999 18.8003 8.79999C19.5959 8.79999 20.359 8.48392 20.9216 7.92131C21.4842 7.35871 21.8003 6.59564 21.8003 5.79999C21.8003 5.00434 21.4842 4.24128 20.9216 3.67867C20.359 3.11606 19.5959 2.79999 18.8003 2.79999ZM3.20027 3.99999C2.72288 3.99999 2.26504 4.18964 1.92747 4.5272C1.58991 4.86477 1.40027 5.3226 1.40027 5.79999C1.40027 6.27738 1.58991 6.73522 1.92747 7.07279C2.26504 7.41035 2.72288 7.59999 3.20027 7.59999C3.67766 7.59999 4.13549 7.41035 4.47306 7.07279C4.81062 6.73522 5.00027 6.27738 5.00027 5.79999C5.00027 5.3226 4.81062 4.86477 4.47306 4.5272C4.13549 4.18964 3.67766 3.99999 3.20027 3.99999ZM0.200266 5.79999C0.200266 5.00434 0.516337 4.24128 1.07895 3.67867C1.64156 3.11606 2.40462 2.79999 3.20027 2.79999C3.99592 2.79999 4.75898 3.11606 5.32159 3.67867C5.8842 4.24128 6.20027 5.00434 6.20027 5.79999C6.20027 6.59564 5.8842 7.35871 5.32159 7.92131C4.75898 8.48392 3.99592 8.79999 3.20027 8.79999C2.40462 8.79999 1.64156 8.48392 1.07895 7.92131C0.516337 7.35871 0.200266 6.59564 0.200266 5.79999ZM8.00027 8.79999C7.52288 8.79999 7.06504 8.98964 6.72747 9.3272C6.38991 9.66477 6.20027 10.1226 6.20027 10.6V14.8C6.20027 16.073 6.70598 17.2939 7.60615 18.1941C8.50633 19.0943 9.72723 19.6 11.0003 19.6C12.2733 19.6 13.4942 19.0943 14.3944 18.1941C15.2946 17.2939 15.8003 16.073 15.8003 14.8V10.6C15.8003 10.1226 15.6106 9.66477 15.2731 9.3272C14.9355 8.98964 14.4777 8.79999 14.0003 8.79999H8.00027ZM7.40027 10.6C7.40027 10.4409 7.46348 10.2883 7.576 10.1757C7.68852 10.0632 7.84114 9.99999 8.00027 9.99999H14.0003C14.1594 9.99999 14.312 10.0632 14.4245 10.1757C14.5371 10.2883 14.6003 10.4409 14.6003 10.6V14.8C14.6003 15.7548 14.221 16.6704 13.5459 17.3456C12.8707 18.0207 11.955 18.4 11.0003 18.4C10.0455 18.4 9.12981 18.0207 8.45468 17.3456C7.77955 16.6704 7.40027 15.7548 7.40027 14.8V10.6Z" fill="white" fill-opacity="0.5"/>
</svg>
