<svg width="22" height="23" viewBox="0 0 22 23" fill="none" xmlns="http://www.w3.org/2000/svg">
<path d="M21.0615 16.875L17.664 13.4766L14.2459 2.1994C14.1487 1.87828 13.9739 1.58608 13.7368 1.34868C13.4998 1.11128 13.2079 0.936 12.8869 0.838375C12.5659 0.740749 12.2258 0.723789 11.8967 0.788998C11.5677 0.854206 11.2597 0.999569 11.0002 1.21221C10.7408 0.999569 10.4328 0.854206 10.1037 0.788998C9.77465 0.723789 9.43456 0.740749 9.11359 0.838375C8.79263 0.936 8.50069 1.11128 8.26364 1.34868C8.0266 1.58608 7.85176 1.87828 7.75462 2.1994L4.33649 13.4775L0.938992 16.875C0.6579 17.1563 0.5 17.5377 0.5 17.9353C0.5 18.333 0.6579 18.7144 0.938992 18.9956L4.00368 22.0603C4.14297 22.1997 4.30835 22.3102 4.49036 22.3856C4.67237 22.461 4.86745 22.4998 5.06446 22.4998C5.26147 22.4998 5.45655 22.461 5.63857 22.3856C5.82058 22.3102 5.98595 22.1997 6.12524 22.0603L10.6515 17.5313C10.7769 17.4054 10.8934 17.271 11.0002 17.1291C11.1071 17.271 11.2236 17.4054 11.349 17.5313L15.8752 22.0613C16.0145 22.2006 16.1799 22.3111 16.3619 22.3865C16.5439 22.4619 16.739 22.5007 16.936 22.5007C17.133 22.5007 17.3281 22.4619 17.5101 22.3865C17.6921 22.3111 17.8575 22.2006 17.9968 22.0613L21.0615 18.9966C21.2008 18.8573 21.3113 18.6919 21.3867 18.5099C21.4621 18.3279 21.501 18.1328 21.501 17.9358C21.501 17.7388 21.4621 17.5437 21.3867 17.3617C21.3113 17.1797 21.2008 17.0143 21.0615 16.875ZM5.06399 21L2.00024 17.9363L3.18993 16.7466L6.25462 19.8113L5.06399 21ZM10.2502 14.8828C10.2517 15.1787 10.1945 15.4719 10.0819 15.7455C9.96921 16.0191 9.80338 16.2676 9.59399 16.4766L7.31399 18.75L4.25024 15.6863L5.52993 14.4056C5.61726 14.3183 5.68167 14.2107 5.71743 14.0925L9.18618 2.6344C9.22136 2.5069 9.30197 2.39667 9.4128 2.32448C9.52363 2.25229 9.65703 2.22314 9.78788 2.2425C9.91872 2.26187 10.038 2.32842 10.1231 2.42962C10.2083 2.53082 10.2535 2.65967 10.2502 2.7919V14.8828ZM12.4065 16.4766C12.1971 16.2676 12.0313 16.0191 11.9186 15.7455C11.806 15.4719 11.7487 15.1787 11.7502 14.8828V2.78909C11.7503 2.65919 11.797 2.53363 11.8818 2.43528C11.9667 2.33692 12.084 2.27232 12.2125 2.25323C12.341 2.23415 12.4721 2.26185 12.5818 2.3313C12.6916 2.40074 12.7728 2.50731 12.8106 2.63159L16.2793 14.0897C16.3151 14.2079 16.3795 14.3155 16.4668 14.4028L17.8252 15.7613L14.694 18.7613L12.4065 16.4766ZM16.9365 21L15.759 19.8216L18.8893 16.8216L20.0002 17.9363L16.9365 21Z" fill="white" fill-opacity="0.5"/>
</svg>
