<svg width="17" height="16" viewBox="0 0 17 16" fill="none" xmlns="http://www.w3.org/2000/svg">
<path d="M8.49967 2.13634C5.26128 2.13634 2.63604 4.76158 2.63604 7.99998C2.63604 11.2384 5.26128 13.8636 8.49967 13.8636C11.7381 13.8636 14.3633 11.2384 14.3633 7.99998C14.3633 7.64016 14.655 7.34846 15.0148 7.34846C15.3746 7.34846 15.6663 7.64016 15.6663 7.99998C15.6663 11.958 12.4577 15.1666 8.49967 15.1666C4.54163 15.1666 1.33301 11.958 1.33301 7.99998C1.33301 4.04194 4.54163 0.833313 8.49967 0.833313C9.9166 0.833313 11.2378 1.24488 12.3497 1.95437L13.1663 1.13776C13.2817 0.954836 13.4856 0.833313 13.7178 0.833313C14.0776 0.833313 14.3693 1.12501 14.3693 1.48483V3.5255C14.3693 4.3213 13.3805 4.68428 12.865 4.08507C11.7906 2.8879 10.2333 2.13634 8.49967 2.13634Z" fill="#C1DEFD"/>
<path d="M8.49967 2.13634C5.26128 2.13634 2.63604 4.76158 2.63604 7.99998C2.63604 9.12016 2.95015 10.167 3.4951 11.0572L2.48394 11.8967C1.75587 10.775 1.33301 9.43686 1.33301 7.99998C1.33301 4.04194 4.54163 0.833313 8.49967 0.833313C9.9166 0.833313 11.2378 1.24488 12.3497 1.95437L13.1663 1.13776C13.2817 0.954836 13.4856 0.833313 13.7178 0.833313C14.0776 0.833313 14.3693 1.12501 14.3693 1.48483V3.5255C14.3693 4.3213 13.3805 4.68428 12.865 4.08507C11.7906 2.8879 10.2333 2.13634 8.49967 2.13634Z" fill="#077BF8"/>
</svg>
