<svg width="40" height="40" viewBox="0 0 40 40" fill="none" xmlns="http://www.w3.org/2000/svg">
<rect width="40" height="40" rx="20" fill="#0F6AD9" fill-opacity="0.24"/>
<path d="M26.0001 15.16C25.9401 15.15 25.8701 15.15 25.8101 15.16C24.4301 15.11 23.3301 13.98 23.3301 12.58C23.3301 11.15 24.4801 10 25.9101 10C27.3401 10 28.4901 11.16 28.4901 12.58C28.4801 13.98 27.3801 15.11 26.0001 15.16Z" stroke="#0F6AD9" stroke-width="1.5" stroke-linecap="round" stroke-linejoin="round"/>
<path d="M24.9704 22.44C26.3404 22.67 27.8504 22.43 28.9104 21.72C30.3204 20.78 30.3204 19.24 28.9104 18.3C27.8404 17.59 26.3104 17.35 24.9404 17.59" stroke="#0F6AD9" stroke-width="1.5" stroke-linecap="round" stroke-linejoin="round"/>
<path d="M13.9705 15.16C14.0305 15.15 14.1005 15.15 14.1605 15.16C15.5405 15.11 16.6405 13.98 16.6405 12.58C16.6405 11.15 15.4905 10 14.0605 10C12.6305 10 11.4805 11.16 11.4805 12.58C11.4905 13.98 12.5905 15.11 13.9705 15.16Z" stroke="#0F6AD9" stroke-width="1.5" stroke-linecap="round" stroke-linejoin="round"/>
<path d="M15.0004 22.44C13.6304 22.67 12.1204 22.43 11.0604 21.72C9.65043 20.78 9.65043 19.24 11.0604 18.3C12.1304 17.59 13.6604 17.35 15.0304 17.59" stroke="#0F6AD9" stroke-width="1.5" stroke-linecap="round" stroke-linejoin="round"/>
<path d="M20.0001 22.63C19.9401 22.62 19.8701 22.62 19.8101 22.63C18.4301 22.58 17.3301 21.45 17.3301 20.05C17.3301 18.62 18.4801 17.47 19.9101 17.47C21.3401 17.47 22.4901 18.63 22.4901 20.05C22.4801 21.45 21.3801 22.59 20.0001 22.63Z" stroke="#0F6AD9" stroke-width="1.5" stroke-linecap="round" stroke-linejoin="round"/>
<path d="M17.0897 25.78C15.6797 26.72 15.6797 28.26 17.0897 29.2C18.6897 30.27 21.3097 30.27 22.9097 29.2C24.3197 28.26 24.3197 26.72 22.9097 25.78C21.3197 24.72 18.6897 24.72 17.0897 25.78Z" stroke="#0F6AD9" stroke-width="1.5" stroke-linecap="round" stroke-linejoin="round"/>
</svg>
